<?xml version="1.0" standalone="no"?>
<!DOCTYPE svg PUBLIC "-//W3C//DTD SVG 20010904//EN"
 "http://www.w3.org/TR/2001/REC-SVG-20010904/DTD/svg10.dtd">
<svg version="1.0" xmlns="http://www.w3.org/2000/svg"
 width="384.000000pt" height="256.000000pt" viewBox="0 0 384.000000 256.000000"
 preserveAspectRatio="xMidYMid meet">

<g transform="translate(0.000000,256.000000) scale(0.100000,-0.100000)"
fill="#000000" stroke="none">
<path d="M467 2524 c-4 -4 -7 -21 -7 -38 0 -16 -9 -39 -19 -50 -27 -30 -32
-105 -10 -153 14 -31 23 -38 48 -39 27 -1 34 3 50 38 22 48 17 124 -9 153 -10
11 -20 35 -22 54 -3 33 -17 49 -31 35z m23 -42 c0 -27 6 -41 21 -50 16 -10 18
-16 9 -27 -7 -9 -8 -15 0 -20 20 -12 11 -55 -15 -67 -35 -16 -75 3 -75 36 0
14 5 28 10 31 8 5 7 11 0 20 -9 11 -7 17 9 27 15 9 21 23 21 50 0 21 5 38 10
38 6 0 10 -17 10 -38z m15 -174 c28 13 30 8 13 -31 -15 -31 -33 -36 -25 -7 4
15 0 20 -13 20 -13 0 -17 -5 -13 -20 8 -29 -10 -24 -24 7 -18 39 -16 44 12 31
19 -8 31 -8 50 0z"/>
<path d="M445 2350 c3 -5 8 -10 11 -10 2 0 4 5 4 10 0 6 -5 10 -11 10 -5 0 -7
-4 -4 -10z"/>
<path d="M500 2349 c0 -5 5 -7 10 -4 6 3 10 8 10 11 0 2 -4 4 -10 4 -5 0 -10
-5 -10 -11z"/>
<path d="M2387 2524 c-4 -4 -7 -21 -7 -38 0 -16 -9 -39 -19 -50 -27 -30 -33
-107 -10 -137 26 -34 74 -34 97 0 23 33 19 107 -8 136 -10 11 -20 35 -22 54
-3 33 -17 49 -31 35z m23 -42 c0 -27 6 -41 21 -50 16 -10 18 -16 9 -27 -7 -9
-8 -15 0 -20 5 -3 10 -17 10 -31 0 -33 -40 -52 -75 -36 -26 12 -35 55 -15 67
8 5 7 11 0 20 -9 11 -7 17 9 27 15 9 21 23 21 50 0 21 5 38 10 38 6 0 10 -17
10 -38z m24 -184 c-3 -5 -18 -8 -34 -8 -16 0 -31 3 -34 8 -2 4 13 7 34 7 21 0
36 -3 34 -7z"/>
<path d="M2365 2350 c3 -5 8 -10 11 -10 2 0 4 5 4 10 0 6 -5 10 -11 10 -5 0
-7 -4 -4 -10z"/>
<path d="M2420 2349 c0 -5 5 -7 10 -4 6 3 10 8 10 11 0 2 -4 4 -10 4 -5 0 -10
-5 -10 -11z"/>
<path d="M147 2514 c-4 -4 -7 -21 -7 -38 0 -16 -9 -39 -19 -50 -29 -32 -33
-110 -7 -148 29 -44 39 -44 79 -5 32 32 34 39 30 83 -3 28 -13 58 -23 69 -10
11 -20 35 -22 54 -3 33 -17 49 -31 35z m23 -42 c0 -27 6 -41 21 -50 16 -10 18
-16 9 -27 -7 -9 -8 -15 0 -20 5 -3 10 -17 10 -31 0 -33 -40 -52 -75 -36 -26
12 -35 55 -15 67 8 5 7 11 0 20 -9 11 -7 17 9 27 15 9 21 23 21 50 0 21 5 38
10 38 6 0 10 -17 10 -38z m7 -177 c16 4 22 2 18 -5 -3 -5 -15 -10 -25 -10 -13
0 -17 -5 -14 -15 10 -24 -12 -17 -30 10 -21 32 -20 38 5 25 11 -7 32 -9 46 -5z"/>
<path d="M125 2340 c3 -5 8 -10 11 -10 2 0 4 5 4 10 0 6 -5 10 -11 10 -5 0 -7
-4 -4 -10z"/>
<path d="M180 2339 c0 -5 5 -7 10 -4 6 3 10 8 10 11 0 2 -4 4 -10 4 -5 0 -10
-5 -10 -11z"/>
<path d="M2067 2514 c-4 -4 -7 -21 -7 -38 0 -16 -9 -39 -19 -50 -30 -33 -33
-110 -7 -149 46 -68 118 -16 109 80 -3 27 -13 57 -23 68 -10 11 -20 35 -22 54
-3 33 -17 49 -31 35z m23 -42 c0 -27 6 -41 21 -50 16 -10 18 -16 9 -27 -7 -9
-8 -15 0 -20 5 -3 10 -17 10 -31 0 -33 -40 -52 -75 -36 -26 12 -35 55 -15 67
8 5 7 11 0 20 -9 11 -7 17 9 27 15 9 21 23 21 50 0 21 5 38 10 38 6 0 10 -17
10 -38z m15 -174 c30 14 31 6 5 -28 -16 -20 -20 -22 -20 -7 0 9 -4 17 -10 17
-5 0 -7 -7 -4 -15 10 -24 -12 -17 -30 10 -22 33 -20 37 9 23 19 -8 31 -8 50 0z"/>
<path d="M2045 2340 c3 -5 8 -10 11 -10 2 0 4 5 4 10 0 6 -5 10 -11 10 -5 0
-7 -4 -4 -10z"/>
<path d="M2100 2339 c0 -5 5 -7 10 -4 6 3 10 8 10 11 0 2 -4 4 -10 4 -5 0 -10
-5 -10 -11z"/>
<path d="M2707 2514 c-4 -4 -7 -21 -7 -38 0 -16 -9 -39 -19 -50 -30 -33 -33
-110 -7 -149 46 -68 118 -16 109 80 -3 27 -13 57 -23 68 -10 11 -20 35 -22 54
-3 33 -17 49 -31 35z m23 -42 c0 -27 6 -41 21 -50 16 -10 18 -16 9 -27 -7 -9
-8 -15 0 -20 5 -3 10 -17 10 -31 0 -33 -40 -52 -75 -36 -26 12 -35 55 -15 67
8 5 7 11 0 20 -9 11 -7 17 9 27 15 9 21 23 21 50 0 21 5 38 10 38 6 0 10 -17
10 -38z m15 -174 c30 14 31 6 5 -28 -16 -20 -20 -22 -20 -7 0 9 -4 17 -10 17
-5 0 -7 -7 -4 -15 10 -24 -12 -17 -30 10 -22 33 -20 37 9 23 19 -8 31 -8 50 0z"/>
<path d="M2685 2340 c3 -5 8 -10 11 -10 2 0 4 5 4 10 0 6 -5 10 -11 10 -5 0
-7 -4 -4 -10z"/>
<path d="M2740 2339 c0 -5 5 -7 10 -4 6 3 10 8 10 11 0 2 -4 4 -10 4 -5 0 -10
-5 -10 -11z"/>
<path d="M796 2488 c-9 -12 -16 -27 -16 -32 0 -5 -9 -19 -19 -30 -11 -12 -21
-41 -24 -70 -4 -44 -2 -51 30 -83 40 -39 50 -39 79 5 27 39 22 116 -9 150 -18
19 -19 26 -9 43 24 38 -7 54 -32 17z m34 3 c0 -6 -4 -13 -10 -16 -17 -10 -11
-40 11 -53 16 -10 18 -16 9 -27 -7 -9 -8 -15 0 -20 20 -12 11 -55 -15 -67 -35
-16 -75 3 -75 36 0 14 5 28 10 31 8 5 7 11 0 20 -9 11 -7 17 9 27 12 7 21 19
21 26 0 19 19 52 30 52 6 0 10 -4 10 -9z m5 -215 c-19 -28 -41 -36 -31 -11 3
10 -1 15 -14 15 -10 0 -22 5 -25 10 -4 7 2 9 18 4 14 -3 34 -1 44 4 25 15 27
8 8 -22z"/>
<path d="M765 2340 c3 -5 8 -10 11 -10 2 0 4 5 4 10 0 6 -5 10 -11 10 -5 0 -7
-4 -4 -10z"/>
<path d="M820 2339 c0 -5 5 -7 10 -4 6 3 10 8 10 11 0 2 -4 4 -10 4 -5 0 -10
-5 -10 -11z"/>
<path d="M1226 2478 c-3 -7 -8 -26 -13 -43 -7 -22 -16 -31 -37 -33 -15 -2 -35
0 -44 4 -10 4 -41 8 -69 9 -52 1 -53 0 -54 -27 -1 -15 -2 -34 -3 -40 -1 -7 7
-19 17 -27 13 -9 17 -20 13 -37 -7 -28 14 -33 34 -9 18 21 29 19 40 -10 11
-29 17 -30 57 -10 25 13 34 28 57 98 14 46 26 93 26 105 0 24 -18 40 -24 20z
m-12 -123 c-19 -60 -32 -85 -43 -85 -13 0 -13 2 -2 9 16 10 6 31 -14 31 -11 0
-13 -8 -8 -30 4 -24 2 -30 -11 -30 -10 0 -15 4 -11 9 8 14 -35 51 -60 51 -21
0 -45 17 -45 33 0 4 5 5 10 2 6 -3 10 -1 10 4 0 6 -3 11 -7 11 -5 0 -9 12 -9
28 -1 15 0 22 3 16 3 -8 15 -9 40 -3 20 4 41 6 45 3 11 -7 10 -64 0 -64 -5 0
-9 -7 -9 -15 0 -8 4 -15 8 -15 10 0 19 27 19 56 0 21 4 24 40 24 39 0 40 1 53
47 8 33 13 41 15 25 2 -12 -9 -60 -24 -107z"/>
<path d="M1086 2391 c-3 -5 1 -11 9 -15 8 -3 15 -1 15 4 0 13 -18 22 -24 11z"/>
<path d="M1070 2339 c0 -5 5 -7 10 -4 6 3 10 8 10 11 0 2 -4 4 -10 4 -5 0 -10
-5 -10 -11z"/>
<path d="M1515 2478 c-2 -7 -5 -26 -7 -43 -3 -32 -25 -43 -56 -29 -9 4 -41 8
-69 9 -50 1 -53 0 -54 -24 0 -14 -2 -33 -4 -42 -1 -8 10 -24 26 -35 17 -11 29
-28 29 -41 0 -27 38 -42 54 -22 23 28 50 37 62 21 6 -9 18 -13 28 -9 13 5 16
23 16 111 0 60 -4 108 -10 111 -6 3 -12 0 -15 -7z m4 -158 c-8 -6 -8 -9 0 -14
16 -10 13 -36 -4 -36 -8 0 -14 3 -14 8 7 42 -33 44 -58 2 -18 -31 -37 -38 -49
-18 -4 6 -3 8 3 5 6 -4 13 0 17 8 3 10 -1 15 -12 15 -15 0 -15 2 -2 10 12 8
10 10 -10 10 -26 0 -50 16 -50 33 0 4 5 5 10 2 6 -3 10 -1 10 4 0 6 -3 11 -7
11 -5 0 -9 12 -9 28 -1 15 0 22 3 16 3 -8 15 -9 40 -3 20 4 41 6 45 3 11 -7
10 -64 0 -64 -5 0 -9 -7 -9 -15 0 -8 4 -15 8 -15 10 0 19 27 19 56 0 21 5 24
35 24 19 0 34 3 34 8 -1 4 0 25 2 47 2 22 5 5 6 -39 3 -52 0 -82 -8 -86z"/>
<path d="M1406 2391 c-3 -5 1 -11 9 -15 8 -3 15 -1 15 4 0 13 -18 22 -24 11z"/>
<path d="M1390 2339 c0 -5 5 -7 10 -4 6 3 10 8 10 11 0 2 -4 4 -10 4 -5 0 -10
-5 -10 -11z"/>
<path d="M1866 2478 c-3 -7 -8 -26 -13 -43 -7 -22 -16 -31 -37 -33 -15 -2 -35
0 -44 4 -10 4 -41 8 -69 9 -50 1 -53 0 -54 -24 0 -14 -2 -33 -4 -42 -1 -8 12
-25 31 -39 25 -17 33 -28 29 -41 -9 -26 21 -36 44 -15 10 9 23 16 29 16 6 0
18 10 26 22 l15 21 10 -26 c11 -29 38 -36 47 -12 4 9 1 28 -5 43 -9 22 -8 37
4 71 8 24 15 54 15 67 0 26 -18 42 -24 22z m-1 -88 c-13 -44 -15 -62 -6 -78
15 -29 14 -42 -5 -42 -8 0 -13 4 -9 9 9 15 -24 41 -43 34 -9 -4 -28 -20 -43
-36 -14 -17 -31 -28 -38 -26 -11 4 -11 8 1 20 20 19 12 39 -16 39 -22 0 -46
17 -46 33 0 4 5 5 10 2 6 -3 10 -1 10 4 0 6 -3 11 -7 11 -5 0 -9 12 -9 28 -1
15 0 22 3 16 3 -8 15 -9 40 -3 20 4 41 6 45 3 11 -7 10 -64 0 -64 -5 0 -9 -7
-9 -15 0 -8 4 -15 8 -15 10 0 19 27 19 56 0 21 4 24 40 24 39 0 40 1 53 47 7
27 13 39 16 28 2 -10 -5 -44 -14 -75z"/>
<path d="M1726 2391 c-3 -5 1 -11 9 -15 8 -3 15 -1 15 4 0 13 -18 22 -24 11z"/>
<path d="M1710 2339 c0 -5 5 -7 10 -4 6 3 10 8 10 11 0 2 -4 4 -10 4 -5 0 -10
-5 -10 -11z"/>
<path d="M3146 2478 c-3 -7 -8 -26 -13 -43 -7 -22 -16 -31 -37 -33 -15 -2 -35
0 -44 4 -10 4 -41 8 -69 9 -52 1 -53 0 -54 -27 -1 -15 -2 -34 -3 -40 -1 -7 7
-19 17 -27 12 -9 17 -21 13 -35 -4 -17 1 -24 26 -35 30 -14 32 -13 60 18 l29
32 30 -21 c47 -34 76 -10 48 41 -8 15 -6 32 5 66 9 26 16 57 16 69 0 26 -18
42 -24 22z m-1 -88 c-13 -44 -15 -62 -6 -78 15 -29 14 -42 -5 -42 -8 0 -13 4
-9 9 9 15 -24 41 -43 34 -9 -4 -28 -20 -43 -36 -14 -17 -31 -28 -38 -26 -11 4
-11 8 1 20 20 19 12 39 -16 39 -22 0 -46 17 -46 33 0 4 5 5 10 2 6 -3 10 -1
10 4 0 6 -3 11 -7 11 -5 0 -9 12 -9 28 -1 15 0 22 3 16 3 -8 15 -9 40 -3 20 4
41 6 45 3 11 -7 10 -64 0 -64 -5 0 -9 -7 -9 -15 0 -8 4 -15 8 -15 10 0 19 27
19 56 0 21 4 24 40 24 39 0 40 1 53 47 7 27 13 39 16 28 2 -10 -5 -44 -14 -75z"/>
<path d="M3006 2391 c-3 -5 1 -11 9 -15 8 -3 15 -1 15 4 0 13 -18 22 -24 11z"/>
<path d="M2990 2339 c0 -5 5 -7 10 -4 6 3 10 8 10 11 0 2 -4 4 -10 4 -5 0 -10
-5 -10 -11z"/>
<path d="M3435 2478 c-2 -7 -5 -26 -7 -43 -3 -32 -25 -43 -56 -29 -9 4 -41 8
-69 9 -52 1 -53 0 -54 -27 -1 -15 -2 -33 -3 -39 -2 -16 75 -90 88 -86 6 2 16
-3 22 -11 17 -24 72 5 90 47 16 38 19 177 4 186 -6 3 -12 0 -15 -7z m4 -170
c-7 -23 -19 -38 -28 -38 -13 0 -13 2 -2 9 16 10 6 31 -14 31 -11 0 -13 -8 -8
-30 4 -24 2 -30 -11 -30 -10 0 -15 4 -11 9 8 14 -35 51 -60 51 -21 0 -45 17
-45 33 0 4 5 5 10 2 6 -3 10 -1 10 4 0 6 -3 11 -7 11 -5 0 -9 12 -9 28 -1 15
0 22 3 16 3 -8 15 -9 40 -3 20 4 41 6 45 3 11 -7 10 -64 0 -64 -5 0 -9 -7 -9
-15 0 -8 4 -15 8 -15 10 0 19 27 19 56 0 21 5 24 35 24 19 0 34 3 34 8 -1 4 0
25 2 47 2 27 4 17 7 -30 2 -39 -2 -87 -9 -107z"/>
<path d="M3326 2391 c-3 -5 1 -11 9 -15 8 -3 15 -1 15 4 0 13 -18 22 -24 11z"/>
<path d="M3310 2339 c0 -5 5 -7 10 -4 6 3 10 8 10 11 0 2 -4 4 -10 4 -5 0 -10
-5 -10 -11z"/>
<path d="M3786 2478 c-3 -7 -8 -26 -13 -43 -7 -22 -16 -31 -37 -33 -15 -2 -35
0 -44 4 -10 4 -41 8 -69 9 -52 1 -53 0 -54 -27 -1 -15 -2 -34 -3 -40 -1 -7 7
-19 17 -27 12 -9 17 -21 13 -35 -4 -17 1 -24 26 -35 30 -14 32 -13 60 18 l29
32 30 -21 c47 -34 76 -10 48 41 -8 15 -6 32 5 66 9 26 16 57 16 69 0 26 -18
42 -24 22z m-1 -88 c-13 -44 -15 -62 -6 -78 15 -29 14 -42 -5 -42 -8 0 -13 4
-9 9 9 15 -24 41 -43 34 -9 -4 -28 -20 -43 -36 -14 -17 -31 -28 -38 -26 -11 4
-11 8 1 20 20 19 12 39 -16 39 -22 0 -46 17 -46 33 0 4 5 5 10 2 6 -3 10 -1
10 4 0 6 -3 11 -7 11 -5 0 -9 12 -9 28 -1 15 0 22 3 16 3 -8 15 -9 40 -3 20 4
41 6 45 3 11 -7 10 -64 0 -64 -5 0 -9 -7 -9 -15 0 -8 4 -15 8 -15 10 0 19 27
19 56 0 21 4 24 40 24 39 0 40 1 53 47 7 27 13 39 16 28 2 -10 -5 -44 -14 -75z"/>
<path d="M3646 2391 c-3 -5 1 -11 9 -15 8 -3 15 -1 15 4 0 13 -18 22 -24 11z"/>
<path d="M3630 2339 c0 -5 5 -7 10 -4 6 3 10 8 10 11 0 2 -4 4 -10 4 -5 0 -10
-5 -10 -11z"/>
<path d="M565 2138 c-2 -7 -5 -26 -7 -43 -3 -28 -6 -30 -47 -33 -38 -3 -47 0
-67 25 -19 23 -25 26 -36 15 -11 -11 -10 -12 4 -7 13 5 21 0 29 -19 11 -23 18
-26 65 -26 58 0 54 -3 68 70 3 14 4 0 2 -30 -1 -31 -9 -70 -18 -88 -9 -17 -14
-41 -11 -52 4 -14 0 -20 -11 -20 -10 0 -15 4 -12 9 3 4 -1 17 -9 27 -14 18
-16 18 -39 -8 -27 -30 -41 -35 -52 -16 -4 6 -3 8 3 5 6 -4 13 0 17 8 3 9 -1
15 -11 15 -13 0 -13 2 -2 16 12 15 11 16 -9 10 -28 -9 -65 2 -56 16 5 7 2 8
-6 3 -10 -6 -11 -3 -6 16 4 13 8 33 7 44 0 11 3 15 7 9 9 -15 64 -25 59 -11
-3 10 -13 14 -51 19 -16 2 -21 -5 -28 -37 -8 -35 -6 -42 13 -57 12 -10 27 -18
35 -18 8 0 14 -10 14 -24 0 -39 37 -45 65 -10 l23 29 11 -28 c19 -48 41 -30
62 48 20 79 24 141 9 150 -6 3 -12 0 -15 -7z"/>
<path d="M1217 2143 c-3 -5 -8 -23 -12 -40 -5 -25 -12 -33 -28 -33 -27 0 -42
10 -49 30 -3 10 -21 15 -61 15 -56 1 -57 1 -58 -27 -1 -15 -2 -34 -3 -40 -1
-7 9 -22 23 -32 13 -11 30 -35 38 -54 9 -22 19 -32 29 -28 7 3 14 1 14 -4 0
-19 38 -10 53 13 15 22 15 22 30 2 22 -28 32 -12 33 53 0 31 4 76 9 98 4 26 3
44 -3 48 -6 3 -13 3 -15 -1z m4 -75 c-6 -17 -11 -41 -11 -53 0 -13 -10 -27
-25 -35 -13 -7 -27 -21 -31 -32 -3 -10 -12 -18 -21 -18 -12 0 -13 3 -4 13 8
10 6 19 -10 35 -25 28 -27 28 -21 -3 2 -14 0 -25 -5 -25 -15 0 -33 47 -27 67
5 15 4 15 -4 4 -17 -24 -41 4 -40 49 l0 38 37 -5 c20 -3 43 -11 51 -18 8 -7
30 -17 49 -24 40 -13 46 -7 58 49 6 29 8 31 11 12 2 -13 -1 -37 -7 -54z"/>
<path d="M1516 2143 c-3 -3 -6 -21 -6 -40 0 -25 -4 -33 -17 -33 -23 0 -39 11
-45 30 -3 10 -21 15 -61 15 -56 1 -57 1 -58 -27 -1 -15 -2 -34 -3 -40 -1 -7 8
-21 21 -31 12 -9 24 -31 28 -47 8 -35 22 -47 38 -31 16 16 37 13 37 -5 0 -13
7 -15 37 -9 21 4 41 9 45 11 5 3 8 50 8 104 0 91 -7 120 -24 103z m-6 -160
c-11 -8 -20 -23 -20 -34 0 -10 -7 -19 -15 -19 -8 0 -12 6 -9 14 3 7 -7 23 -23
36 l-28 22 -3 -26 c-2 -14 -7 -26 -12 -26 -13 0 -22 37 -15 63 5 16 4 18 -4 8
-16 -25 -40 5 -39 49 l0 38 37 -5 c20 -3 43 -11 51 -18 8 -7 29 -17 47 -23 35
-12 41 -5 45 51 1 18 4 -1 5 -42 4 -65 2 -75 -17 -88z"/>
<path d="M1857 2143 c-3 -5 -8 -23 -12 -40 -5 -25 -12 -33 -28 -33 -27 0 -42
10 -49 30 -3 10 -21 15 -61 15 -56 1 -57 1 -58 -27 -1 -15 -2 -34 -3 -40 -1
-7 9 -21 21 -31 18 -15 21 -22 13 -43 -19 -50 11 -60 39 -13 19 30 19 31 30
10 7 -12 18 -21 26 -21 8 0 15 -7 15 -15 0 -21 39 -19 46 3 3 9 10 26 14 37 5
11 11 36 14 55 3 19 9 51 12 71 6 33 -7 61 -19 42z m4 -75 c-6 -17 -11 -40
-11 -50 0 -11 -7 -26 -15 -35 -9 -9 -13 -23 -10 -34 5 -13 1 -19 -10 -19 -9 0
-14 4 -11 9 6 9 -18 32 -52 50 -19 10 -23 9 -34 -14 -6 -14 -17 -25 -25 -25
-11 0 -11 7 2 36 17 41 19 56 6 35 -16 -25 -40 5 -39 49 l0 38 37 -5 c20 -3
43 -11 51 -18 8 -7 30 -17 49 -24 40 -13 46 -7 58 49 6 29 8 31 11 12 2 -13
-1 -37 -7 -54z"/>
<path d="M3137 2143 c-3 -5 -8 -23 -12 -40 -5 -25 -12 -33 -28 -33 -27 0 -42
10 -49 30 -3 10 -21 15 -61 15 -56 1 -57 1 -58 -27 -1 -15 -2 -34 -3 -40 -1
-7 9 -21 21 -31 19 -15 21 -22 12 -44 -15 -39 2 -48 46 -23 38 22 65 15 65
-16 0 -15 23 -17 55 -5 17 7 20 18 21 67 0 32 4 78 9 100 4 26 3 44 -3 48 -6
3 -13 3 -15 -1z m4 -75 c-6 -17 -11 -40 -11 -50 0 -11 -7 -26 -15 -35 -9 -9
-13 -23 -10 -34 5 -13 1 -19 -10 -19 -9 0 -14 4 -11 9 6 9 -18 32 -52 50 -19
10 -23 9 -34 -14 -6 -14 -17 -25 -25 -25 -11 0 -11 7 2 36 17 41 19 56 6 35
-16 -25 -40 5 -39 49 l0 38 37 -5 c20 -3 43 -11 51 -18 8 -7 30 -17 49 -24 40
-13 46 -7 58 49 6 29 8 31 11 12 2 -13 -1 -37 -7 -54z"/>
<path d="M3436 2143 c-3 -3 -6 -21 -6 -40 0 -25 -4 -33 -17 -33 -23 0 -39 11
-45 30 -3 10 -21 15 -61 15 -56 1 -57 1 -58 -27 -1 -15 -2 -34 -3 -40 -1 -7 9
-22 23 -32 13 -11 30 -35 38 -54 9 -22 19 -32 28 -28 7 2 15 0 18 -7 2 -8 13
-8 44 1 51 15 63 42 63 137 0 68 -8 94 -24 78z m14 -76 c0 -68 -2 -75 -25 -87
-13 -7 -27 -21 -31 -32 -3 -10 -12 -18 -21 -18 -12 0 -13 3 -4 13 8 10 6 19
-10 35 -25 28 -27 28 -21 -3 2 -14 0 -25 -5 -25 -15 0 -33 47 -27 67 5 15 4
15 -4 4 -17 -24 -41 4 -40 49 l0 38 37 -5 c20 -3 43 -11 51 -18 8 -7 29 -17
47 -23 35 -12 43 -3 43 49 0 16 2 29 5 29 3 0 5 -33 5 -73z"/>
<path d="M3777 2143 c-3 -5 -8 -23 -12 -40 -5 -25 -12 -33 -28 -33 -27 0 -42
10 -49 30 -3 10 -21 15 -61 15 -56 1 -57 1 -58 -27 -1 -15 -2 -34 -3 -40 -1
-7 9 -21 21 -31 19 -15 21 -22 12 -44 -15 -39 2 -48 46 -23 38 22 65 15 65
-16 0 -15 23 -17 55 -5 17 7 20 18 21 67 0 32 4 78 9 100 4 26 3 44 -3 48 -6
3 -13 3 -15 -1z m4 -75 c-6 -17 -11 -40 -11 -50 0 -11 -7 -26 -15 -35 -9 -9
-13 -23 -10 -34 5 -13 1 -19 -10 -19 -9 0 -14 4 -11 9 6 9 -18 32 -52 50 -19
10 -23 9 -34 -14 -6 -14 -17 -25 -25 -25 -11 0 -11 7 2 36 17 41 19 56 6 35
-16 -25 -40 5 -39 49 l0 38 37 -5 c20 -3 43 -11 51 -18 8 -7 30 -17 49 -24 40
-13 46 -7 58 49 6 29 8 31 11 12 2 -13 -1 -37 -7 -54z"/>
<path d="M245 2128 c-2 -7 -5 -26 -7 -43 -3 -28 -6 -30 -47 -33 -38 -3 -47 0
-67 25 -19 23 -25 26 -36 15 -11 -11 -10 -12 4 -7 13 5 21 0 29 -19 11 -23 18
-26 65 -26 58 0 54 -3 68 70 3 14 2 -2 -1 -35 -3 -33 -5 -79 -5 -102 0 -31 -5
-43 -15 -43 -8 0 -12 4 -8 9 3 6 -4 15 -16 21 -23 13 -89 5 -89 -11 0 -5 -10
-14 -22 -19 -17 -6 -18 -9 -6 -9 9 -1 20 4 23 10 4 6 14 8 22 5 9 -4 21 1 29
11 13 17 13 17 14 1 0 -10 5 -18 11 -18 5 0 7 6 3 13 -4 6 2 4 14 -7 32 -28
51 -15 51 36 -1 24 2 68 6 99 5 38 4 59 -4 63 -6 4 -13 1 -16 -6z"/>
<path d="M2485 2128 c-2 -7 -5 -26 -7 -43 -3 -28 -6 -30 -47 -33 -38 -3 -47 0
-67 25 -19 23 -25 26 -36 15 -11 -11 -10 -12 4 -7 13 5 21 0 29 -19 11 -23 18
-26 65 -26 58 0 55 -3 68 70 2 14 3 3 1 -25 -1 -27 -5 -61 -9 -75 -5 -21 -4
-20 8 5 17 35 21 111 6 120 -6 3 -12 0 -15 -7z"/>
<path d="M903 2093 c-17 -35 -21 -38 -67 -41 -44 -3 -52 0 -72 25 -19 23 -25
26 -36 15 -11 -11 -10 -12 4 -7 13 5 21 0 29 -19 11 -23 18 -26 64 -26 55 0
75 13 94 60 9 22 10 23 10 4 1 -11 -10 -35 -24 -54 -14 -19 -25 -40 -25 -47 0
-20 -29 -73 -39 -73 -5 0 -8 7 -7 16 2 25 -24 29 -31 5 -3 -12 -12 -21 -20
-21 -8 0 -11 5 -8 11 4 6 -2 13 -14 16 -18 5 -19 8 -9 21 11 13 10 14 -10 8
-28 -9 -65 2 -56 16 5 7 2 8 -6 3 -10 -6 -11 -3 -6 16 4 13 8 33 7 44 0 11 3
15 7 9 9 -15 64 -25 59 -11 -2 6 -10 11 -18 13 -7 1 -21 5 -30 9 -20 8 -24 2
-33 -48 -6 -34 -4 -39 23 -55 22 -12 29 -22 25 -34 -6 -20 20 -25 32 -7 5 8
10 6 16 -5 12 -21 34 -20 47 2 10 16 10 16 11 0 0 -21 35 -25 47 -5 4 6 15 12
23 12 9 0 14 7 12 20 -8 43 -3 65 17 91 22 28 27 59 12 68 -5 4 -18 -11 -28
-31z m-5 -138 c-3 -3 -9 2 -12 12 -6 14 -5 15 5 6 7 -7 10 -15 7 -18z"/>
<path d="M2183 2093 c-17 -35 -21 -38 -67 -41 -44 -3 -52 0 -72 25 -19 23 -25
26 -36 15 -11 -11 -10 -12 4 -7 13 5 21 0 29 -19 11 -23 18 -26 64 -26 55 0
75 13 94 60 9 23 10 23 10 4 1 -12 -9 -34 -21 -50 -17 -21 -23 -41 -22 -76 0
-35 -3 -48 -13 -48 -8 0 -12 4 -8 9 10 16 -35 33 -70 27 -18 -4 -36 -13 -39
-21 -3 -8 -13 -15 -21 -15 -14 0 -13 5 6 31 l22 31 -22 -7 c-27 -8 -63 3 -55
17 5 7 2 8 -6 3 -10 -6 -11 -3 -6 16 4 13 8 33 7 44 0 11 3 15 7 9 9 -15 64
-25 59 -11 -2 6 -10 11 -18 13 -7 1 -21 5 -30 9 -20 8 -24 2 -33 -48 -6 -34
-4 -39 23 -55 22 -12 29 -22 25 -35 -8 -27 22 -31 55 -8 37 26 63 27 79 1 7
-11 19 -20 27 -20 22 0 38 36 25 59 -11 22 -5 45 22 80 10 13 18 32 18 42 0
33 -18 29 -37 -8z"/>
<path d="M2823 2093 c-17 -35 -21 -38 -67 -41 -44 -3 -52 0 -72 25 -19 23 -25
26 -36 15 -11 -11 -10 -12 4 -7 13 5 21 0 29 -19 11 -23 18 -26 64 -26 55 0
75 13 94 60 9 23 10 23 10 4 1 -12 -9 -34 -21 -50 -17 -21 -23 -41 -22 -76 0
-35 -3 -48 -13 -48 -8 0 -12 4 -8 9 10 16 -35 33 -70 27 -18 -4 -36 -13 -39
-21 -3 -8 -13 -15 -21 -15 -14 0 -13 5 6 31 l22 31 -22 -7 c-27 -8 -63 3 -55
17 5 7 2 8 -6 3 -10 -6 -11 -3 -6 16 4 13 8 33 7 44 0 11 3 15 7 9 9 -15 64
-25 59 -11 -2 6 -10 11 -18 13 -7 1 -21 5 -30 9 -20 8 -24 2 -33 -48 -6 -34
-4 -39 23 -55 22 -12 29 -22 25 -35 -8 -27 22 -31 55 -8 37 26 63 27 79 1 7
-11 19 -20 27 -20 22 0 38 36 25 59 -11 22 -5 45 22 80 10 13 18 32 18 42 0
33 -18 29 -37 -8z"/>
<path d="M35 2079 c-2 -8 -6 -30 -7 -49 -3 -31 1 -37 29 -50 18 -8 31 -21 28
-27 -7 -21 1 -15 20 13 16 25 16 26 -4 19 -27 -8 -63 3 -55 17 5 7 2 8 -6 3
-10 -6 -11 -3 -6 16 4 13 8 33 7 44 0 11 3 15 7 9 9 -15 64 -25 59 -11 -2 6
-10 11 -18 13 -7 1 -22 5 -31 9 -11 4 -20 2 -23 -6z"/>
<path d="M2275 2079 c-2 -8 -6 -30 -7 -49 -3 -31 1 -36 42 -58 25 -13 49 -30
53 -38 11 -19 34 -18 46 4 10 16 10 16 11 0 0 -24 37 -23 50 1 5 11 10 26 10
33 -1 7 -8 1 -16 -14 -16 -31 -33 -37 -30 -12 2 25 -24 29 -31 5 -3 -12 -12
-21 -20 -21 -8 0 -11 5 -8 11 4 6 -2 13 -14 16 -18 5 -19 8 -9 21 11 13 10 14
-10 8 -28 -9 -65 2 -56 16 5 7 2 8 -6 3 -10 -6 -11 -3 -6 16 4 13 8 33 7 44 0
11 3 15 7 9 9 -15 64 -25 59 -11 -2 6 -10 11 -18 13 -7 1 -22 5 -31 9 -11 4
-20 2 -23 -6z"/>
<path d="M390 2029 c0 -5 5 -7 10 -4 6 3 10 8 10 11 0 2 -4 4 -10 4 -5 0 -10
-5 -10 -11z"/>
<path d="M70 2019 c0 -5 5 -7 10 -4 6 3 10 8 10 11 0 2 -4 4 -10 4 -5 0 -10
-5 -10 -11z"/>
<path d="M710 2019 c0 -5 5 -7 10 -4 6 3 10 8 10 11 0 2 -4 4 -10 4 -5 0 -10
-5 -10 -11z"/>
<path d="M1990 2019 c0 -5 5 -7 10 -4 6 3 10 8 10 11 0 2 -4 4 -10 4 -5 0 -10
-5 -10 -11z"/>
<path d="M2310 2019 c0 -5 5 -7 10 -4 6 3 10 8 10 11 0 2 -4 4 -10 4 -5 0 -10
-5 -10 -11z"/>
<path d="M2630 2019 c0 -5 5 -7 10 -4 6 3 10 8 10 11 0 2 -4 4 -10 4 -5 0 -10
-5 -10 -11z"/>
<path d="M997 1843 c-12 -12 -7 -46 19 -130 23 -70 32 -85 57 -98 40 -20 46
-19 57 10 11 29 22 31 40 10 20 -24 41 -19 34 9 -4 17 0 28 13 37 10 8 18 20
17 27 -1 6 -2 25 -3 40 -1 27 -2 28 -53 27 -29 -1 -60 -5 -70 -9 -9 -4 -29 -6
-44 -4 -23 2 -30 10 -39 40 -11 41 -18 51 -28 41z m73 -93 c36 0 40 -3 40 -24
0 -29 9 -56 19 -56 4 0 8 7 8 15 0 8 -4 15 -9 15 -10 0 -11 57 0 64 4 3 25 1
45 -3 25 -6 37 -5 40 3 3 6 4 -1 3 -16 0 -16 -4 -28 -8 -28 -5 0 -8 -5 -8 -11
0 -5 5 -7 10 -4 6 3 10 2 10 -2 0 -16 -24 -33 -45 -33 -25 0 -68 -37 -60 -51
4 -5 -1 -9 -11 -9 -13 0 -15 6 -10 30 4 22 2 30 -9 30 -20 0 -30 -21 -14 -31
11 -7 11 -9 -2 -9 -11 0 -24 24 -43 83 -14 46 -26 94 -25 108 0 16 5 9 15 -23
14 -47 16 -48 54 -48z"/>
<path d="M1135 1749 c-9 -14 -2 -20 14 -10 8 6 9 11 3 15 -6 3 -14 1 -17 -5z"/>
<path d="M1155 1700 c3 -5 8 -10 11 -10 2 0 4 5 4 10 0 6 -5 10 -11 10 -5 0
-7 -4 -4 -10z"/>
<path d="M1347 1844 c-4 -4 -7 -54 -7 -111 0 -87 3 -105 16 -110 10 -4 22 0
28 9 12 16 39 7 62 -21 16 -20 54 -5 54 22 0 13 12 30 29 41 16 11 27 27 26
35 -2 9 -4 28 -4 42 -1 24 -4 25 -53 24 -29 -1 -61 -5 -70 -9 -33 -15 -53 -3
-56 34 -4 37 -14 55 -25 44z m14 -52 c3 -40 4 -42 36 -42 28 0 33 -3 33 -24 0
-29 9 -56 19 -56 4 0 8 7 8 15 0 8 -4 15 -9 15 -10 0 -11 57 0 64 4 3 25 1 45
-3 25 -6 37 -5 40 3 3 6 4 -1 3 -16 0 -16 -4 -28 -8 -28 -5 0 -8 -5 -8 -11 0
-5 5 -7 10 -4 6 3 10 2 10 -2 0 -17 -24 -33 -49 -33 -21 0 -23 -2 -11 -10 13
-8 13 -10 -2 -10 -11 0 -15 -5 -12 -15 4 -8 11 -12 17 -8 6 3 7 1 3 -5 -12
-20 -31 -13 -49 18 -25 42 -65 40 -58 -2 0 -5 -6 -8 -14 -8 -18 0 -20 21 -3
38 9 9 9 12 0 12 -8 0 -12 25 -12 82 0 85 7 104 11 30z"/>
<path d="M1455 1749 c-9 -14 -2 -20 14 -10 8 6 9 11 3 15 -6 3 -14 1 -17 -5z"/>
<path d="M1475 1700 c3 -5 8 -10 11 -10 2 0 4 5 4 10 0 6 -5 10 -11 10 -5 0
-7 -4 -4 -10z"/>
<path d="M1634 1835 c-4 -10 -1 -39 6 -64 13 -45 14 -55 8 -116 -4 -41 28 -48
42 -9 l11 27 15 -21 c8 -12 20 -22 26 -22 6 0 19 -7 29 -16 23 -21 53 -11 44
15 -4 13 4 24 29 41 19 14 32 31 31 39 -2 9 -4 28 -4 42 -1 24 -4 25 -53 24
-29 -1 -60 -5 -70 -9 -9 -4 -29 -6 -44 -4 -23 2 -30 10 -39 40 -13 46 -23 56
-31 33z m76 -85 c36 0 40 -3 40 -24 0 -29 9 -56 19 -56 4 0 8 7 8 15 0 8 -4
15 -9 15 -10 0 -11 57 0 64 4 3 25 1 45 -3 25 -6 37 -5 40 3 3 6 4 -1 3 -16 0
-16 -4 -28 -8 -28 -5 0 -8 -5 -8 -11 0 -5 5 -7 10 -4 6 3 10 2 10 -2 0 -16
-24 -33 -46 -33 -28 0 -36 -20 -16 -39 12 -12 12 -16 1 -20 -7 -2 -24 9 -38
26 -15 16 -34 32 -43 36 -19 7 -52 -19 -43 -34 4 -5 -1 -9 -9 -9 -19 0 -20 10
-5 44 9 19 8 35 -5 72 -9 26 -16 59 -15 73 0 19 4 13 15 -21 14 -47 16 -48 54
-48z"/>
<path d="M1775 1749 c-9 -14 -2 -20 14 -10 8 6 9 11 3 15 -6 3 -14 1 -17 -5z"/>
<path d="M1795 1700 c3 -5 8 -10 11 -10 2 0 4 5 4 10 0 6 -5 10 -11 10 -5 0
-7 -4 -4 -10z"/>
<path d="M2914 1835 c-4 -10 -1 -39 6 -64 14 -50 15 -72 5 -113 -10 -38 15
-46 54 -18 l30 21 29 -32 c28 -31 30 -32 60 -18 25 11 30 18 26 35 -4 14 1 26
13 35 10 8 18 20 17 27 -1 6 -2 25 -3 40 -1 27 -2 28 -53 27 -29 -1 -60 -5
-70 -9 -9 -4 -29 -6 -44 -4 -23 2 -30 10 -39 40 -13 46 -23 56 -31 33z m76
-85 c36 0 40 -3 40 -24 0 -29 9 -56 19 -56 4 0 8 7 8 15 0 8 -4 15 -9 15 -10
0 -11 57 0 64 4 3 25 1 45 -3 25 -6 37 -5 40 3 3 6 4 -1 3 -16 0 -16 -4 -28
-8 -28 -5 0 -8 -5 -8 -11 0 -5 5 -7 10 -4 6 3 10 2 10 -2 0 -16 -24 -33 -46
-33 -28 0 -36 -20 -16 -39 12 -12 12 -16 1 -20 -7 -2 -24 9 -38 26 -15 16 -34
32 -43 36 -19 7 -52 -19 -43 -34 4 -5 -1 -9 -9 -9 -19 0 -20 10 -5 44 9 19 8
35 -5 72 -9 26 -16 59 -15 73 0 19 4 13 15 -21 14 -47 16 -48 54 -48z"/>
<path d="M3055 1749 c-9 -14 -2 -20 14 -10 8 6 9 11 3 15 -6 3 -14 1 -17 -5z"/>
<path d="M3075 1700 c3 -5 8 -10 11 -10 2 0 4 5 4 10 0 6 -5 10 -11 10 -5 0
-7 -4 -4 -10z"/>
<path d="M3267 1844 c-13 -13 -7 -151 7 -185 18 -42 73 -71 90 -47 6 8 16 13
22 11 13 -4 90 70 88 86 -1 6 -2 24 -3 39 -1 27 -2 28 -53 27 -29 -1 -61 -5
-70 -9 -33 -15 -53 -3 -56 34 -4 37 -14 55 -25 44z m14 -52 c3 -40 4 -42 36
-42 28 0 33 -3 33 -24 0 -29 9 -56 19 -56 4 0 8 7 8 15 0 8 -4 15 -9 15 -10 0
-11 57 0 64 4 3 25 1 45 -3 25 -6 37 -5 40 3 3 6 4 -1 3 -16 0 -16 -4 -28 -8
-28 -5 0 -8 -5 -8 -11 0 -5 5 -7 10 -4 6 3 10 2 10 -2 0 -16 -24 -33 -45 -33
-25 0 -68 -37 -60 -51 4 -5 -1 -9 -11 -9 -13 0 -15 6 -10 30 4 22 2 30 -9 30
-20 0 -30 -21 -14 -31 12 -7 11 -9 -1 -9 -24 0 -40 57 -40 140 0 78 7 92 11
22z"/>
<path d="M3375 1749 c-9 -14 -2 -20 14 -10 8 6 9 11 3 15 -6 3 -14 1 -17 -5z"/>
<path d="M3395 1700 c3 -5 8 -10 11 -10 2 0 4 5 4 10 0 6 -5 10 -11 10 -5 0
-7 -4 -4 -10z"/>
<path d="M3554 1835 c-4 -10 -1 -39 6 -64 14 -50 15 -72 5 -113 -10 -38 15
-46 54 -18 l30 21 29 -32 c28 -31 30 -32 60 -18 25 11 30 18 26 35 -4 14 1 26
13 35 10 8 18 20 17 27 -1 6 -2 25 -3 40 -1 27 -2 28 -53 27 -29 -1 -60 -5
-70 -9 -9 -4 -29 -6 -44 -4 -23 2 -30 10 -39 40 -13 46 -23 56 -31 33z m76
-85 c36 0 40 -3 40 -24 0 -29 9 -56 19 -56 4 0 8 7 8 15 0 8 -4 15 -9 15 -10
0 -11 57 0 64 4 3 25 1 45 -3 25 -6 37 -5 40 3 3 6 4 -1 3 -16 0 -16 -4 -28
-8 -28 -5 0 -8 -5 -8 -11 0 -5 5 -7 10 -4 6 3 10 2 10 -2 0 -16 -24 -33 -46
-33 -28 0 -36 -20 -16 -39 12 -12 12 -16 1 -20 -7 -2 -24 9 -38 26 -15 16 -34
32 -43 36 -19 7 -52 -19 -43 -34 4 -5 -1 -9 -9 -9 -19 0 -20 10 -5 44 9 19 8
35 -5 72 -9 26 -16 59 -15 73 0 19 4 13 15 -21 14 -47 16 -48 54 -48z"/>
<path d="M3695 1749 c-9 -14 -2 -20 14 -10 8 6 9 11 3 15 -6 3 -14 1 -17 -5z"/>
<path d="M3715 1700 c3 -5 8 -10 11 -10 2 0 4 5 4 10 0 6 -5 10 -11 10 -5 0
-7 -4 -4 -10z"/>
<path d="M377 1824 c-22 -22 19 -217 47 -222 10 -2 20 7 27 25 l11 28 23 -29
c28 -35 65 -29 65 10 0 14 6 24 14 24 8 0 23 8 35 18 19 15 21 22 13 57 -7 32
-12 39 -28 37 -38 -5 -48 -9 -51 -19 -5 -14 50 -4 59 11 4 6 7 2 7 -9 -1 -11
3 -31 7 -44 5 -19 4 -22 -6 -16 -8 5 -11 4 -6 -3 9 -14 -28 -25 -56 -16 -20 6
-21 5 -9 -10 11 -14 11 -16 -2 -16 -10 0 -14 -6 -11 -15 4 -8 11 -12 17 -8 6
3 7 1 3 -5 -11 -19 -25 -14 -52 16 -23 26 -25 26 -39 8 -8 -10 -12 -23 -9 -27
3 -5 -2 -9 -12 -9 -11 0 -15 6 -11 20 3 11 -2 35 -11 52 -9 18 -17 57 -18 88
-2 30 -1 44 2 30 14 -73 10 -70 68 -70 47 0 54 3 65 26 8 19 16 24 29 19 14
-5 15 -4 4 7 -11 11 -17 8 -36 -15 -20 -25 -29 -28 -67 -25 -42 3 -44 4 -47
38 -4 37 -14 55 -25 44z"/>
<path d="M54 1806 c-4 -9 -3 -38 1 -64 4 -26 7 -66 7 -90 -1 -51 18 -64 50
-36 12 11 18 13 14 7 -4 -7 -2 -13 3 -13 6 0 11 8 11 18 1 16 1 16 14 -1 8
-10 20 -15 29 -11 8 3 18 1 22 -5 3 -6 14 -11 23 -10 12 0 11 3 -5 9 -13 5
-23 14 -23 19 0 16 -66 24 -89 11 -12 -6 -19 -15 -16 -21 4 -5 0 -9 -8 -9 -10
0 -15 12 -15 43 0 23 -2 69 -5 102 -3 33 -4 49 -1 35 14 -73 10 -70 68 -70 47
0 54 3 65 26 8 19 16 24 29 19 14 -5 15 -4 4 7 -11 11 -17 8 -36 -15 -20 -25
-29 -28 -67 -25 -42 3 -44 4 -47 38 -4 42 -19 61 -28 36z"/>
<path d="M2297 1814 c-12 -13 -7 -88 9 -119 12 -25 13 -26 8 -5 -4 14 -8 48
-9 75 -2 28 -1 39 1 25 13 -73 10 -70 68 -70 47 0 54 3 65 26 8 19 16 24 29
19 14 -5 15 -4 4 7 -11 11 -17 8 -36 -15 -20 -25 -29 -28 -67 -25 -42 3 -44 4
-47 38 -4 37 -14 55 -25 44z"/>
<path d="M664 1796 c-4 -10 -1 -27 5 -39 7 -12 19 -34 27 -49 11 -21 12 -32 4
-48 -13 -24 -4 -44 15 -36 7 2 16 -2 19 -10 8 -20 46 -18 46 4 1 16 1 16 11 0
13 -22 35 -23 47 -2 6 11 11 13 16 5 12 -18 38 -13 32 7 -4 12 3 22 25 34 27
16 29 21 23 55 -9 50 -13 56 -33 48 -9 -4 -23 -8 -30 -9 -8 -2 -16 -7 -18 -13
-5 -14 50 -4 59 11 4 6 7 2 7 -9 -1 -11 3 -31 7 -44 5 -19 4 -22 -6 -16 -8 5
-11 4 -6 -3 9 -14 -28 -25 -56 -16 -20 6 -21 5 -10 -8 10 -13 9 -16 -9 -21
-12 -3 -18 -10 -14 -16 3 -6 0 -11 -8 -11 -8 0 -17 9 -20 21 -7 24 -33 20 -31
-5 1 -9 -2 -16 -7 -16 -10 0 -39 53 -39 73 0 7 -11 28 -25 47 -14 19 -25 43
-24 54 0 19 1 18 10 -4 19 -47 39 -60 94 -60 46 0 53 3 64 26 8 19 16 24 29
19 14 -5 15 -4 4 7 -11 11 -17 8 -36 -15 -20 -25 -28 -28 -72 -25 -44 3 -51 6
-66 36 -22 44 -26 48 -34 28z m49 -151 c-3 -9 -8 -14 -10 -11 -3 3 -2 9 2 15
9 16 15 13 8 -4z"/>
<path d="M1944 1796 c-4 -10 -1 -27 5 -39 7 -12 19 -34 27 -49 11 -21 12 -33
4 -48 -13 -24 2 -60 25 -60 8 0 20 9 27 20 16 26 42 25 79 -1 33 -23 63 -19
55 8 -4 13 3 23 25 35 27 16 29 21 23 55 -9 50 -13 56 -33 48 -9 -4 -23 -8
-30 -9 -8 -2 -16 -7 -18 -13 -5 -14 50 -4 59 11 4 6 7 2 7 -9 -1 -11 3 -31 7
-44 5 -19 4 -22 -6 -16 -8 5 -11 4 -6 -3 8 -14 -28 -25 -55 -17 l-22 7 22 -31
c19 -26 20 -31 6 -31 -8 0 -18 7 -21 15 -3 8 -21 17 -39 21 -35 6 -80 -11 -70
-27 4 -5 0 -9 -8 -9 -10 0 -13 13 -13 48 1 35 -5 55 -21 76 -13 16 -23 38 -22
50 0 19 1 19 10 -4 19 -47 39 -60 94 -60 46 0 53 3 64 26 8 19 16 24 29 19 14
-5 15 -4 4 7 -11 11 -17 8 -36 -15 -20 -25 -28 -28 -72 -25 -44 3 -51 6 -66
36 -22 44 -26 48 -34 28z"/>
<path d="M2584 1796 c-4 -10 -1 -27 5 -39 7 -12 19 -34 27 -49 11 -21 12 -33
4 -48 -13 -24 2 -60 25 -60 8 0 20 9 27 20 16 26 42 25 79 -1 33 -23 63 -19
55 8 -4 13 3 23 25 35 27 16 29 21 23 55 -9 50 -13 56 -33 48 -9 -4 -23 -8
-30 -9 -8 -2 -16 -7 -18 -13 -5 -14 50 -4 59 11 4 6 7 2 7 -9 -1 -11 3 -31 7
-44 5 -19 4 -22 -6 -16 -8 5 -11 4 -6 -3 8 -14 -28 -25 -55 -17 l-22 7 22 -31
c19 -26 20 -31 6 -31 -8 0 -18 7 -21 15 -3 8 -21 17 -39 21 -35 6 -80 -11 -70
-27 4 -5 0 -9 -8 -9 -10 0 -13 13 -13 48 1 35 -5 55 -21 76 -13 16 -23 38 -22
50 0 19 1 19 10 -4 19 -47 39 -60 94 -60 46 0 53 3 64 26 8 19 16 24 29 19 14
-5 15 -4 4 7 -11 11 -17 8 -36 -15 -20 -25 -28 -28 -72 -25 -44 3 -51 6 -66
36 -22 44 -26 48 -34 28z"/>
<path d="M258 1764 c-3 -3 -14 -7 -24 -8 -10 -2 -19 -7 -21 -13 -5 -14 50 -4
59 11 4 6 7 2 7 -9 -1 -11 3 -31 7 -44 5 -19 4 -22 -6 -16 -8 5 -11 4 -6 -3 8
-14 -28 -25 -55 -17 -20 7 -20 6 -4 -19 19 -29 27 -34 19 -11 -4 9 0 15 9 15
8 0 24 8 36 18 19 15 21 22 14 56 -8 38 -22 54 -35 40z"/>
<path d="M2498 1764 c-3 -3 -14 -7 -24 -8 -10 -2 -19 -7 -21 -13 -5 -14 50 -4
59 11 4 6 7 2 7 -9 -1 -11 3 -31 7 -44 5 -19 4 -22 -6 -16 -8 5 -11 4 -6 -3 9
-14 -28 -25 -56 -16 -20 6 -21 5 -10 -8 10 -13 9 -16 -9 -21 -12 -3 -18 -10
-14 -16 3 -6 0 -11 -8 -11 -8 0 -17 9 -20 21 -7 24 -33 20 -31 -5 3 -25 -14
-19 -30 12 -8 15 -15 21 -16 14 0 -7 5 -22 10 -33 13 -24 50 -25 50 -1 1 16 1
16 11 0 12 -22 38 -23 45 -4 3 8 26 24 50 36 51 24 56 32 46 79 -7 33 -22 48
-34 35z"/>
<path d="M555 1710 c3 -5 8 -10 11 -10 2 0 4 5 4 10 0 6 -5 10 -11 10 -5 0 -7
-4 -4 -10z"/>
<path d="M235 1700 c3 -5 8 -10 11 -10 2 0 4 5 4 10 0 6 -5 10 -11 10 -5 0 -7
-4 -4 -10z"/>
<path d="M875 1700 c3 -5 8 -10 11 -10 2 0 4 5 4 10 0 6 -5 10 -11 10 -5 0 -7
-4 -4 -10z"/>
<path d="M2155 1700 c3 -5 8 -10 11 -10 2 0 4 5 4 10 0 6 -5 10 -11 10 -5 0
-7 -4 -4 -10z"/>
<path d="M2475 1700 c3 -5 8 -10 11 -10 2 0 4 5 4 10 0 6 -5 10 -11 10 -5 0
-7 -4 -4 -10z"/>
<path d="M2795 1700 c3 -5 8 -10 11 -10 2 0 4 5 4 10 0 6 -5 10 -11 10 -5 0
-7 -4 -4 -10z"/>
<path d="M426 1512 c-14 -23 -16 -148 -3 -187 15 -44 47 -61 47 -26 0 12 5 21
10 21 6 0 10 -9 10 -21 0 -35 32 -18 47 26 22 63 3 226 -21 186 -9 -14 -59
-14 -73 0 -7 7 -13 7 -17 1z m54 -22 c14 0 31 5 37 11 9 9 11 3 11 -22 -1 -19
2 -46 6 -61 8 -28 -12 -128 -25 -128 -4 0 -9 10 -11 23 -2 12 -10 22 -18 22
-8 0 -16 -10 -18 -22 -2 -13 -7 -23 -11 -23 -13 0 -33 100 -25 128 4 15 7 42
6 61 0 25 2 31 11 22 6 -6 23 -11 37 -11z"/>
<path d="M482 1435 c0 -16 2 -22 5 -12 2 9 2 23 0 30 -3 6 -5 -1 -5 -18z"/>
<path d="M462 1400 c0 -14 2 -19 5 -12 2 6 2 18 0 25 -3 6 -5 1 -5 -13z"/>
<path d="M492 1370 c0 -14 2 -19 5 -12 2 6 2 18 0 25 -3 6 -5 1 -5 -13z"/>
<path d="M2346 1512 c-3 -5 -8 -43 -11 -83 -5 -68 -3 -76 20 -104 21 -25 27
-28 35 -15 9 13 11 13 20 0 8 -13 14 -10 35 15 23 28 25 35 20 105 -5 73 -16
103 -29 81 -9 -14 -59 -14 -73 0 -7 7 -13 7 -17 1z m54 -22 c14 0 31 5 37 11
8 8 11 0 12 -28 0 -21 3 -52 7 -68 4 -23 0 -37 -15 -55 l-20 -25 -2 35 c-1 32
-2 33 -9 10 -4 -14 -9 -18 -9 -10 -1 10 -6 7 -15 -9 l-13 -24 -18 26 c-12 18
-15 36 -11 55 4 15 7 44 8 65 0 28 3 36 11 28 6 -6 23 -11 37 -11z"/>
<path d="M2402 1435 c0 -16 2 -22 5 -12 2 9 2 23 0 30 -3 6 -5 -1 -5 -18z"/>
<path d="M2382 1400 c0 -14 2 -19 5 -12 2 6 2 18 0 25 -3 6 -5 1 -5 -13z"/>
<path d="M106 1502 c-3 -5 -8 -41 -11 -79 -6 -60 -3 -75 15 -106 23 -39 50
-49 50 -19 0 14 2 15 10 2 8 -13 14 -10 35 15 23 28 25 35 20 105 -5 73 -16
103 -29 81 -9 -14 -59 -14 -73 0 -7 7 -13 7 -17 1z m54 -22 c14 0 31 5 37 11
8 8 11 0 12 -28 0 -21 3 -52 7 -68 4 -23 0 -37 -15 -55 l-20 -25 -2 35 c-1 27
-3 29 -6 11 -4 -19 -7 -21 -15 -10 -7 11 -8 9 -4 -6 3 -11 1 -27 -4 -35 -21
-33 -62 67 -43 106 5 11 8 34 7 53 -2 24 1 30 9 22 6 -6 23 -11 37 -11z"/>
<path d="M162 1425 c0 -16 2 -22 5 -12 2 9 2 23 0 30 -3 6 -5 -1 -5 -18z"/>
<path d="M142 1390 c0 -14 2 -19 5 -12 2 6 2 18 0 25 -3 6 -5 1 -5 -13z"/>
<path d="M746 1502 c-3 -5 -8 -43 -11 -83 -5 -68 -3 -76 20 -104 21 -25 27
-28 35 -15 8 13 10 12 10 -2 0 -30 27 -20 50 19 18 32 21 46 15 107 -6 70 -16
98 -29 77 -9 -14 -59 -14 -73 0 -7 7 -13 7 -17 1z m54 -22 c14 0 31 5 37 11 8
8 11 0 11 -28 1 -21 4 -50 7 -64 7 -27 -19 -99 -35 -99 -14 0 -20 30 -10 56 6
14 9 42 9 62 -1 25 -3 29 -6 12 -13 -88 -15 -93 -24 -79 -6 10 -9 8 -9 -11
l-1 -25 -20 25 c-15 18 -19 32 -15 55 4 16 7 47 7 68 1 28 4 36 12 28 6 -6 23
-11 37 -11z"/>
<path d="M1004 1495 c-4 -9 -1 -41 6 -70 7 -29 10 -69 6 -88 -8 -42 10 -60 31
-31 14 18 15 18 30 -3 15 -23 53 -32 53 -13 0 5 7 7 14 4 10 -4 20 6 29 28 8
19 25 43 38 54 14 10 24 25 23 32 -1 6 -2 25 -3 40 -1 28 -2 28 -58 27 -40 0
-58 -5 -61 -15 -7 -20 -22 -30 -49 -30 -17 0 -24 8 -29 35 -7 40 -21 54 -30
30z m40 -85 c12 0 74 25 86 35 8 7 31 15 51 18 l37 5 0 -38 c1 -45 -23 -73
-40 -49 -8 11 -9 11 -4 -4 6 -20 -12 -67 -27 -67 -5 0 -7 11 -5 25 6 31 4 31
-21 3 -16 -16 -18 -25 -10 -35 9 -10 8 -13 -4 -13 -9 0 -18 8 -21 18 -4 11
-17 25 -30 32 -24 12 -27 22 -40 120 l-6 45 15 -47 c9 -27 17 -48 19 -48z"/>
<path d="M1346 1503 c-9 -9 -8 -201 2 -207 4 -2 24 -7 45 -11 30 -6 37 -4 37
9 0 18 21 21 37 5 16 -16 30 -4 38 31 4 16 16 38 28 47 13 10 22 24 21 31 -1
6 -2 25 -3 40 -1 28 -2 28 -58 27 -40 0 -58 -5 -61 -15 -6 -19 -22 -30 -44
-30 -14 0 -18 8 -18 34 0 34 -11 52 -24 39z m19 -70 c5 -20 8 -21 38 -11 17 6
39 16 47 23 8 7 31 15 51 18 l37 5 0 -38 c1 -44 -23 -74 -39 -49 -8 10 -9 8
-4 -8 7 -26 -2 -63 -15 -63 -5 0 -10 12 -12 26 l-3 26 -28 -22 c-16 -13 -26
-29 -23 -36 3 -8 -1 -14 -9 -14 -8 0 -15 9 -15 20 0 11 -9 25 -20 32 -17 11
-20 23 -19 88 1 41 3 64 6 50 2 -14 6 -35 8 -47z"/>
<path d="M1643 1494 c-3 -9 -1 -37 5 -61 7 -24 12 -52 12 -63 0 -11 4 -28 9
-38 5 -9 12 -25 15 -34 7 -22 46 -24 46 -3 0 8 7 15 15 15 8 0 19 9 26 21 11
21 11 20 30 -10 28 -47 58 -37 39 13 -8 21 -5 28 13 43 12 10 22 24 21 31 -1
6 -2 25 -3 40 -1 28 -2 28 -58 27 -40 0 -58 -5 -61 -15 -7 -20 -22 -30 -49
-30 -17 0 -24 8 -29 35 -7 41 -21 54 -31 29z m41 -84 c12 0 74 25 86 35 8 7
31 15 51 18 l37 5 0 -38 c1 -44 -23 -74 -39 -49 -13 21 -11 6 6 -35 13 -29 13
-36 2 -36 -8 0 -19 11 -25 25 -11 23 -15 24 -34 14 -34 -18 -58 -41 -52 -50 3
-5 -2 -9 -11 -9 -11 0 -15 6 -10 19 3 10 -1 25 -8 33 -14 13 -22 45 -32 123
l-5 40 15 -47 c9 -27 17 -48 19 -48z"/>
<path d="M2027 1502 c-4 -5 -9 -39 -12 -77 -5 -55 -3 -74 12 -101 15 -29 23
-34 53 -34 30 0 38 5 53 34 15 27 17 46 12 102 -6 69 -17 96 -29 75 -9 -14
-59 -14 -73 0 -6 6 -13 7 -16 1z m53 -22 c14 0 31 5 37 11 8 8 11 2 9 -22 -1
-19 2 -42 7 -53 11 -23 1 -74 -19 -101 -13 -17 -16 -18 -24 -5 -9 13 -11 13
-20 0 -8 -13 -11 -12 -24 5 -20 27 -30 78 -19 101 5 11 8 34 7 53 -2 24 1 30
9 22 6 -6 23 -11 37 -11z"/>
<path d="M2082 1425 c0 -16 2 -22 5 -12 2 9 2 23 0 30 -3 6 -5 -1 -5 -18z"/>
<path d="M2060 1394 c0 -10 5 -26 10 -34 8 -11 9 -7 4 15 -8 37 -14 45 -14 19z"/>
<path d="M2091 1364 c0 -11 3 -14 6 -6 3 7 2 16 -1 19 -3 4 -6 -2 -5 -13z"/>
<path d="M2667 1502 c-4 -5 -9 -39 -12 -77 -5 -55 -3 -74 12 -101 15 -29 23
-34 53 -34 30 0 38 5 53 34 15 27 17 46 12 102 -6 69 -17 96 -29 75 -9 -14
-59 -14 -73 0 -6 6 -13 7 -16 1z m53 -22 c14 0 31 5 37 11 8 8 11 2 9 -22 -1
-19 2 -42 7 -53 11 -23 1 -74 -19 -101 -13 -17 -16 -18 -24 -5 -9 13 -11 13
-20 0 -8 -13 -11 -12 -24 5 -20 27 -30 78 -19 101 5 11 8 34 7 53 -2 24 1 30
9 22 6 -6 23 -11 37 -11z"/>
<path d="M2722 1425 c0 -16 2 -22 5 -12 2 9 2 23 0 30 -3 6 -5 -1 -5 -18z"/>
<path d="M2700 1394 c0 -10 5 -26 10 -34 8 -11 9 -7 4 15 -8 37 -14 45 -14 19z"/>
<path d="M2731 1364 c0 -11 3 -14 6 -6 3 7 2 16 -1 19 -3 4 -6 -2 -5 -13z"/>
<path d="M2924 1495 c-4 -9 -1 -41 6 -70 7 -29 10 -69 6 -89 -6 -33 -4 -37 19
-46 36 -14 55 -12 55 4 0 31 27 38 65 16 44 -25 61 -16 46 23 -9 22 -7 29 12
44 12 10 22 24 21 31 -1 6 -2 25 -3 40 -1 28 -2 28 -58 27 -40 0 -58 -5 -61
-15 -7 -20 -22 -30 -49 -30 -17 0 -24 8 -29 35 -7 40 -21 54 -30 30z m40 -85
c12 0 74 25 86 35 8 7 31 15 51 18 l37 5 0 -38 c1 -44 -23 -74 -39 -49 -13 21
-11 6 6 -35 13 -29 13 -36 2 -36 -8 0 -19 11 -25 25 -11 23 -15 24 -34 14 -34
-18 -58 -41 -52 -50 3 -5 -2 -9 -11 -9 -11 0 -15 6 -10 19 3 10 -1 25 -8 33
-14 13 -22 45 -32 123 l-5 40 15 -47 c9 -27 17 -48 19 -48z"/>
<path d="M3266 1503 c-11 -11 -7 -151 6 -178 13 -29 88 -59 95 -38 3 7 11 9
18 7 9 -4 19 6 28 28 8 19 25 43 38 54 14 10 24 25 23 32 -1 6 -2 25 -3 40 -1
28 -2 28 -58 27 -40 0 -58 -5 -61 -15 -6 -19 -22 -30 -44 -30 -14 0 -18 8 -18
34 0 34 -11 52 -24 39z m19 -70 c5 -20 8 -21 38 -11 17 6 39 16 47 23 8 7 31
15 51 18 l37 5 0 -38 c1 -45 -23 -73 -40 -49 -8 11 -9 11 -4 -4 6 -20 -12 -67
-27 -67 -5 0 -7 11 -5 25 6 31 4 31 -21 3 -16 -16 -18 -25 -10 -35 9 -10 8
-13 -4 -13 -9 0 -18 8 -21 18 -4 11 -18 25 -31 32 -23 13 -25 18 -24 89 1 42
3 65 6 51 2 -14 6 -35 8 -47z"/>
<path d="M3564 1495 c-4 -9 -1 -41 6 -70 7 -29 10 -69 6 -89 -6 -33 -4 -37 19
-46 36 -14 55 -12 55 4 0 31 27 38 65 16 44 -25 61 -16 46 23 -9 22 -7 29 12
44 12 10 22 24 21 31 -1 6 -2 25 -3 40 -1 28 -2 28 -58 27 -40 0 -58 -5 -61
-15 -7 -20 -22 -30 -49 -30 -17 0 -24 8 -29 35 -7 40 -21 54 -30 30z m40 -85
c12 0 74 25 86 35 8 7 31 15 51 18 l37 5 0 -38 c1 -44 -23 -74 -39 -49 -13 21
-11 6 6 -35 13 -29 13 -36 2 -36 -8 0 -19 11 -25 25 -11 23 -15 24 -34 14 -34
-18 -58 -41 -52 -50 3 -5 -2 -9 -11 -9 -11 0 -15 6 -10 19 3 10 -1 25 -8 33
-14 13 -22 45 -32 123 l-5 40 15 -47 c9 -27 17 -48 19 -48z"/>
<path d="M1659 1211 c0 -14 -2 -33 -4 -42 -1 -8 10 -24 26 -35 17 -11 29 -28
29 -40 0 -29 16 -34 81 -26 50 7 54 9 57 35 4 33 -19 73 -47 82 -11 3 -21 16
-23 28 -3 19 -9 22 -60 22 -56 1 -58 0 -59 -24z m58 10 c20 4 41 6 45 3 11 -7
10 -64 0 -64 -5 0 -9 -7 -9 -15 0 -24 16 -17 23 10 8 30 14 31 42 5 34 -32 23
-80 -17 -80 -11 0 -12 3 -4 8 8 5 9 13 3 22 -8 13 -12 12 -24 -5 -9 -11 -16
-23 -16 -27 0 -12 -28 -9 -36 4 -4 6 -3 8 3 5 6 -4 13 0 17 8 3 10 -1 15 -12
15 -15 0 -15 2 -2 10 12 8 10 10 -10 10 -26 0 -50 16 -50 33 0 4 5 5 10 2 6
-3 10 -1 10 4 0 6 -3 11 -7 11 -5 0 -9 12 -9 28 -1 15 0 22 3 16 3 -8 15 -9
40 -3z"/>
<path d="M1736 1211 c-3 -5 1 -11 9 -15 8 -3 15 -1 15 4 0 13 -18 22 -24 11z"/>
<path d="M1720 1159 c0 -5 5 -7 10 -4 6 3 10 8 10 11 0 2 -4 4 -10 4 -5 0 -10
-5 -10 -11z"/>
<path d="M2105 1142 c0 -9 5 -24 10 -32 5 -9 4 -15 -3 -18 -7 -2 -12 -8 -12
-14 0 -6 6 -6 15 2 12 10 15 10 15 -2 0 -16 -26 -42 -50 -51 -10 -4 -11 -6 -2
-6 7 -1 22 4 33 9 22 12 24 4 9 -34 -11 -31 -34 -36 -25 -6 5 16 2 20 -15 20
-17 0 -20 -4 -15 -20 9 -30 -14 -25 -25 6 -13 34 -13 37 7 30 15 -6 15 -5 -1
13 -12 13 -17 30 -14 46 3 14 2 25 -3 25 -4 0 -9 8 -12 18 -2 9 -4 -15 -4 -55
0 -81 15 -107 67 -109 44 -2 84 54 70 99 -1 4 -3 10 -5 15 -1 4 -7 20 -13 35
-7 16 -12 33 -12 38 0 5 -4 9 -8 9 -5 0 -8 -8 -7 -18z"/>
<path d="M2680 1151 c0 -5 -5 -22 -12 -38 -6 -15 -12 -31 -13 -35 -2 -5 -4
-11 -5 -15 -14 -45 26 -101 70 -99 52 2 67 28 67 109 0 40 -2 64 -4 55 -3 -10
-8 -18 -12 -18 -5 0 -6 -11 -3 -25 3 -16 -2 -33 -14 -46 -16 -18 -16 -19 -1
-13 20 7 20 4 7 -30 -11 -31 -34 -36 -25 -6 5 16 2 20 -15 20 -17 0 -20 -4
-15 -20 9 -30 -14 -25 -25 6 -15 38 -13 46 11 34 11 -6 25 -9 32 -6 7 2 6 5
-4 5 -19 1 -49 32 -49 51 0 10 3 10 15 0 9 -8 15 -8 15 -2 0 6 -5 12 -12 14
-7 3 -8 9 -3 18 12 19 14 50 3 50 -4 0 -8 -4 -8 -9z"/>
<path d="M1387 1143 c-3 -5 -8 -37 -11 -73 -6 -60 -5 -67 16 -86 28 -26 69
-25 97 0 20 18 21 27 15 85 -3 36 -9 68 -13 71 -3 3 -5 3 -4 1 2 -2 -2 -10 -8
-17 -7 -8 -7 -14 1 -19 20 -12 11 -55 -15 -67 -35 -16 -75 3 -75 36 0 14 5 28
10 31 8 5 8 11 1 19 -6 7 -8 16 -4 19 3 4 4 7 0 7 -3 0 -8 -3 -10 -7z m78
-115 c27 13 30 7 15 -32 -11 -31 -34 -36 -25 -6 5 16 2 20 -15 20 -17 0 -20
-4 -15 -20 9 -30 -14 -25 -25 6 -15 39 -12 45 15 32 19 -8 31 -8 50 0z"/>
<symbol id="resting-cat" viewBox="0 0 32 32">
<title>Kinda like alt text</title>
<path d="M2347 1143 c-3 -5 -8 -37 -11 -73 -6 -60 -5 -67 16 -86 28 -26 69
-25 97 0 20 18 21 27 15 85 -3 36 -9 68 -13 71 -3 3 -5 3 -4 1 2 -2 -2 -10 -8
-17 -7 -8 -7 -14 1 -19 20 -12 11 -55 -15 -67 -35 -16 -75 3 -75 36 0 14 5 28
10 31 8 5 8 11 1 19 -6 7 -8 16 -4 19 3 4 4 7 0 7 -3 0 -8 -3 -10 -7z m78
-115 c27 13 30 7 15 -32 -11 -31 -34 -36 -25 -6 5 16 2 20 -15 20 -17 0 -20
-4 -15 -20 9 -30 -14 -25 -25 6 -15 39 -12 45 15 32 19 -8 31 -8 50 0z"/>
</symbol>
<path d="M1019 1111 c0 -14 -2 -33 -4 -42 -1 -8 10 -24 26 -35 17 -11 29 -28
29 -40 0 -29 16 -34 81 -26 50 7 54 9 57 35 4 33 -19 73 -47 82 -11 3 -21 16
-23 28 -3 19 -9 22 -60 22 -56 1 -58 0 -59 -24z m58 10 c20 4 41 6 45 3 11 -7
10 -64 0 -64 -5 0 -9 -7 -9 -15 0 -24 16 -17 23 10 8 30 14 31 42 5 34 -32 23
-80 -17 -80 -11 0 -12 3 -4 8 8 5 9 13 3 22 -8 13 -12 12 -24 -5 -9 -11 -16
-23 -16 -27 0 -12 -28 -9 -36 4 -4 6 -3 8 3 5 6 -4 13 0 17 8 3 10 -1 15 -12
15 -15 0 -15 2 -2 10 12 8 10 10 -10 10 -26 0 -50 16 -50 33 0 4 5 5 10 2 6
-3 10 -1 10 4 0 6 -3 11 -7 11 -5 0 -9 12 -9 28 -1 15 0 22 3 16 3 -8 15 -9
40 -3z"/>
<path d="M1096 1111 c-3 -5 1 -11 9 -15 8 -3 15 -1 15 4 0 13 -18 22 -24 11z"/>
<path d="M1080 1059 c0 -5 5 -7 10 -4 6 3 10 8 10 11 0 2 -4 4 -10 4 -5 0 -10
-5 -10 -11z"/>
<path d="M796 1068 c-11 -6 -40 -8 -71 -4 -52 6 -52 6 -52 -22 0 -15 -3 -34
-7 -43 -5 -12 4 -18 44 -27 29 -7 71 -12 95 -12 53 0 121 33 128 61 7 28 -22
38 -39 14 -11 -15 -14 -16 -14 -3 0 18 -31 48 -51 48 -8 0 -22 -6 -33 -12z
m64 -17 c35 -67 -28 -101 -130 -70 -33 10 -39 16 -42 45 -4 37 -2 39 37 24 19
-7 35 -6 58 4 45 20 65 19 77 -3z m62 -20 c-8 -4 -13 -12 -12 -17 1 -5 -4 -10
-12 -12 -9 -2 -8 0 2 7 8 6 11 11 7 11 -5 0 -5 5 -2 10 3 6 12 10 18 10 8 0 8
-3 -1 -9z"/>
<path d="M1405 1070 c3 -5 8 -10 11 -10 2 0 4 5 4 10 0 6 -5 10 -11 10 -5 0
-7 -4 -4 -10z"/>
<path d="M1460 1069 c0 -5 5 -7 10 -4 6 3 10 8 10 11 0 2 -4 4 -10 4 -5 0 -10
-5 -10 -11z"/>
<path d="M2365 1070 c3 -5 8 -10 11 -10 2 0 4 5 4 10 0 6 -5 10 -11 10 -5 0
-7 -4 -4 -10z"/>
<path d="M2420 1069 c0 -5 5 -7 10 -4 6 3 10 8 10 11 0 2 -4 4 -10 4 -5 0 -10
-5 -10 -11z"/>
<path d="M33 1043 c0 -15 -3 -35 -7 -44 -5 -12 4 -18 44 -27 29 -7 71 -12 95
-12 53 0 121 33 128 61 7 28 -22 38 -39 14 -8 -10 -14 -13 -14 -7 0 23 -46 36
-80 22 -21 -9 -34 -9 -43 -2 -6 6 -28 13 -48 17 -35 6 -36 6 -36 -22z m71 -7
c8 -11 17 -11 52 2 35 13 45 13 58 3 9 -8 16 -22 16 -32 0 -37 -66 -50 -140
-28 -33 10 -39 16 -42 46 -4 32 -3 34 21 28 14 -3 30 -12 35 -19z m178 -5 c-8
-4 -13 -12 -12 -17 1 -5 -4 -10 -12 -12 -9 -2 -8 0 2 7 8 6 11 11 7 11 -5 0
-5 5 -2 10 3 6 12 10 18 10 8 0 8 -3 -1 -9z"/>
<path d="M353 1043 c0 -16 -3 -35 -7 -44 -5 -12 4 -18 44 -27 76 -18 134 -15
179 8 42 23 60 57 33 67 -9 4 -20 0 -25 -9 -9 -13 -13 -12 -33 11 -21 24 -24
25 -58 13 -26 -10 -45 -10 -73 -3 -55 16 -60 14 -60 -16z m57 4 c21 -11 32
-11 68 2 41 15 44 15 58 -3 44 -60 -24 -95 -126 -65 -33 10 -39 16 -42 45 -4
37 3 41 42 21z m192 -16 c-8 -4 -13 -12 -12 -17 1 -5 -4 -10 -12 -12 -9 -2 -8
0 2 7 8 6 11 11 7 11 -5 0 -5 5 -2 10 3 6 12 10 18 10 8 0 8 -3 -1 -9z"/>
<path d="M2045 1060 c3 -5 8 -10 11 -10 2 0 4 5 4 10 0 6 -5 10 -11 10 -5 0
-7 -4 -4 -10z"/>
<path d="M2740 1059 c0 -5 5 -7 10 -4 6 3 10 8 10 11 0 2 -4 4 -10 4 -5 0 -10
-5 -10 -11z"/>
<path d="M1659 898 c-1 -15 -2 -34 -3 -40 -1 -7 8 -20 18 -29 11 -9 25 -32 31
-50 l12 -34 73 -3 c75 -3 102 7 83 30 -6 7 -13 26 -17 41 -4 16 -20 36 -39 47
-17 11 -34 30 -37 42 -5 20 -12 23 -63 23 -56 1 -57 1 -58 -27z m109 -14 c13
-13 27 -24 32 -24 20 0 50 -41 50 -69 0 -16 6 -32 13 -35 6 -3 -6 -3 -28 0
-22 4 -48 7 -57 6 -10 0 -21 11 -27 26 l-9 27 -1 -27 c-1 -16 -5 -28 -10 -28
-14 0 -23 37 -16 63 5 16 4 18 -4 8 -16 -25 -40 5 -39 49 l0 38 37 -5 c20 -3
46 -16 59 -29z"/>
<path d="M2089 864 c-9 -11 -23 -14 -44 -11 l-32 5 -1 -84 c-1 -104 6 -114 89
-114 66 0 81 13 60 53 -6 12 -13 42 -15 67 -5 52 -21 100 -35 100 -4 0 -15 -7
-22 -16z m35 -41 c4 -21 9 -59 13 -85 5 -45 4 -48 -18 -49 -18 -1 -14 -4 11
-9 30 -6 26 -8 -27 -9 -40 -1 -65 3 -70 12 -4 6 -8 46 -8 87 l0 76 26 -4 c15
-2 32 3 40 11 19 20 25 14 33 -30z"/>
<path d="M2346 872 c-3 -6 -9 -48 -12 -95 -7 -106 1 -117 87 -117 65 0 83 15
61 51 -7 10 -14 49 -17 86 -6 67 -17 95 -29 74 -4 -6 -20 -11 -35 -11 -15 0
-32 5 -38 11 -7 7 -13 7 -17 1z m54 -22 c14 0 31 5 37 11 8 8 11 0 11 -28 0
-21 4 -62 7 -90 7 -51 6 -53 -16 -54 -18 -1 -14 -4 11 -9 30 -6 27 -8 -26 -9
-77 -1 -89 10 -79 76 4 27 7 65 7 86 0 28 3 36 11 28 6 -6 23 -11 37 -11z"/>
<path d="M2668 853 c-6 -16 -13 -58 -15 -94 -6 -86 6 -99 88 -99 67 0 81 14
58 56 -7 14 -13 52 -12 84 l1 58 -32 -5 c-22 -3 -36 0 -45 11 -19 23 -30 20
-43 -11z m81 -11 c26 4 26 4 28 -74 1 -73 0 -78 -20 -79 -14 -1 -9 -4 13 -9
30 -6 27 -8 -26 -9 -43 -1 -65 3 -74 14 -12 14 -10 62 5 130 13 57 14 58 32
40 9 -10 27 -15 42 -13z"/>
<path d="M1019 798 c-1 -15 -2 -34 -3 -40 -1 -7 8 -20 18 -29 11 -9 25 -32 31
-50 l12 -34 73 -3 c75 -3 102 7 83 30 -6 7 -13 26 -17 41 -4 16 -20 36 -39 47
-17 11 -34 30 -37 42 -5 20 -12 23 -63 23 -56 1 -57 1 -58 -27z m109 -14 c13
-13 27 -24 32 -24 20 0 50 -41 50 -69 0 -16 6 -32 13 -35 6 -3 -6 -3 -28 0
-22 4 -48 7 -57 6 -10 0 -21 11 -27 26 l-9 27 -1 -27 c-1 -16 -5 -28 -10 -28
-14 0 -23 37 -16 63 5 16 4 18 -4 8 -16 -25 -40 5 -39 49 l0 38 37 -5 c20 -3
46 -16 59 -29z"/>
<path d="M1365 820 c-3 -6 1 -7 9 -4 10 4 19 -3 27 -19 6 -13 28 -34 49 -46
21 -12 40 -28 44 -36 7 -18 -3 -45 -16 -45 -5 0 -6 -4 -3 -10 3 -5 -1 -10 -10
-10 -9 0 -14 4 -10 9 10 17 -18 24 -30 8 -14 -20 -31 -22 -41 -5 -4 6 -3 8 3
5 6 -4 13 0 17 8 3 9 -1 15 -11 15 -13 0 -13 2 -2 16 12 15 11 16 -9 10 -28
-9 -65 2 -56 16 5 7 2 8 -6 3 -10 -6 -11 -3 -6 16 4 13 8 33 7 44 0 11 3 15 7
9 9 -15 64 -25 59 -11 -3 10 -13 14 -51 19 -16 2 -21 -5 -28 -37 -8 -35 -6
-42 13 -57 12 -10 27 -18 35 -18 8 0 14 -10 14 -24 0 -30 16 -36 96 -36 58 0
79 9 55 24 -4 3 -11 19 -14 35 -4 21 -19 38 -45 55 -21 13 -46 36 -55 50 -18
27 -32 33 -42 16z"/>
<path d="M767 779 c-10 -6 -31 -7 -47 -4 -28 6 -30 5 -31 -24 -1 -17 -2 -37
-3 -43 -1 -7 1 -15 4 -18 3 -3 10 -14 16 -25 13 -23 59 -32 79 -15 8 7 28 9
49 4 23 -4 42 -2 51 6 19 16 19 80 0 106 -13 17 -13 16 -3 -12 6 -17 8 -39 5
-48 -10 -25 -38 -32 -49 -12 -5 9 -13 14 -19 11 -5 -4 -9 11 -9 34 0 36 3 40
28 44 20 3 16 4 -13 5 -22 1 -48 -3 -58 -9z m-19 -18 c20 4 40 5 43 1 4 -4 9
-27 12 -52 3 -25 3 -37 0 -27 -4 16 -24 25 -22 10 4 -26 -3 -43 -18 -43 -15 0
-16 2 -3 10 12 8 9 10 -12 10 -33 0 -42 14 -44 65 -1 22 1 35 3 29 3 -8 16 -9
41 -3z m122 -83 c19 11 21 11 18 0 -3 -7 -18 -13 -34 -13 -21 0 -30 5 -32 20
l-4 20 15 -20 c14 -18 18 -18 37 -7z"/>
<path d="M766 751 c-3 -5 1 -11 9 -15 8 -3 15 -1 15 4 0 13 -18 22 -24 11z"/>
<path d="M49 749 c-1 -16 -2 -35 -3 -41 -1 -7 1 -15 4 -18 3 -3 10 -14 16 -25
13 -23 59 -32 79 -15 8 7 28 9 49 4 23 -4 42 -2 51 6 19 16 19 61 0 86 -14 18
-14 17 -4 -8 9 -21 9 -31 -1 -43 -16 -19 -36 -19 -44 1 -3 8 -10 12 -16 9 -6
-4 -10 6 -10 24 0 27 4 31 27 31 58 0 12 9 -65 13 l-82 4 -1 -28z m59 12 c20
4 40 5 43 1 4 -4 9 -27 12 -52 3 -25 3 -37 0 -27 -4 16 -24 25 -22 10 4 -26
-3 -43 -18 -43 -15 0 -16 2 -3 10 12 8 9 10 -12 10 -33 0 -42 14 -44 65 -1 22
1 35 3 29 3 -8 16 -9 41 -3z m122 -83 c19 11 21 11 18 0 -3 -7 -18 -13 -34
-13 -21 0 -30 5 -32 20 l-4 20 15 -20 c14 -18 18 -18 37 -7z"/>
<path d="M126 751 c-3 -5 1 -11 9 -15 8 -3 15 -1 15 4 0 13 -18 22 -24 11z"/>
<path d="M369 748 c-1 -16 -2 -34 -3 -40 -1 -7 1 -15 4 -18 3 -3 10 -14 16
-25 13 -23 59 -32 79 -15 8 7 28 9 49 4 23 -4 42 -2 51 6 19 16 19 70 0 96
-13 17 -13 16 -3 -13 9 -25 9 -35 -1 -47 -17 -20 -37 -20 -45 0 -3 8 -10 12
-16 9 -6 -4 -10 8 -10 29 0 30 4 35 28 39 15 2 -12 4 -60 3 l-88 -1 -1 -27z
m59 13 c20 4 40 5 43 1 4 -4 9 -27 12 -52 3 -25 3 -37 0 -27 -4 16 -24 25 -22
10 4 -26 -3 -43 -18 -43 -15 0 -16 2 -3 10 12 8 9 10 -12 10 -33 0 -42 14 -44
65 -1 22 1 35 3 29 3 -8 16 -9 41 -3z m122 -83 c19 11 21 11 18 0 -3 -7 -18
-13 -34 -13 -21 0 -30 5 -32 20 l-4 20 15 -20 c14 -18 18 -18 37 -7z"/>
<path d="M446 751 c-3 -5 1 -11 9 -15 8 -3 15 -1 15 4 0 13 -18 22 -24 11z"/>
<path d="M1350 749 c0 -5 5 -7 10 -4 6 3 10 8 10 11 0 2 -4 4 -10 4 -5 0 -10
-5 -10 -11z"/>
<path d="M1745 591 c-3 -2 -5 -12 -5 -21 0 -9 -11 -22 -25 -28 -26 -12 -70
-91 -58 -103 10 -8 123 -18 141 -12 6 3 12 14 12 26 0 13 12 30 29 41 16 11
27 27 26 35 -2 9 -4 27 -4 41 -1 24 -4 26 -56 26 -31 0 -58 -2 -60 -5z m82
-16 c6 -2 14 1 16 8 2 7 4 0 3 -15 0 -16 -4 -28 -8 -28 -5 0 -8 -5 -8 -11 0
-5 5 -7 10 -4 6 3 10 2 10 -2 0 -17 -24 -33 -49 -33 -21 0 -23 -2 -11 -10 13
-8 13 -10 -2 -10 -11 0 -15 -5 -12 -15 4 -8 11 -12 17 -8 6 3 7 1 3 -5 -12
-19 -32 -14 -46 12 -16 31 -47 40 -60 18 -8 -15 -9 -14 -10 5 0 20 34 63 51
63 4 0 10 -11 13 -25 7 -27 23 -34 23 -10 0 8 -4 15 -9 15 -9 0 -11 54 -2 63
6 6 36 2 71 -8z m-105 -126 c5 -3 -8 -6 -29 -7 -32 0 -34 1 -15 8 12 5 22 15
23 22 0 9 3 8 6 -2 3 -8 10 -18 15 -21z"/>
<path d="M1765 569 c-9 -14 -2 -20 14 -10 8 6 9 11 3 15 -6 3 -14 1 -17 -5z"/>
<path d="M1785 520 c3 -5 8 -10 11 -10 2 0 4 5 4 10 0 6 -5 10 -11 10 -5 0 -7
-4 -4 -10z"/>
<path d="M1470 480 c-12 -17 -35 -37 -51 -45 -25 -13 -69 -81 -69 -107 0 -9
121 -11 144 -2 9 3 16 17 16 30 0 14 6 24 14 24 8 0 23 8 35 18 19 15 21 22
13 57 -7 32 -12 39 -28 37 -38 -5 -48 -9 -51 -19 -5 -14 50 -4 59 11 4 6 7 2
7 -9 -1 -11 3 -31 7 -44 5 -19 4 -22 -6 -16 -8 5 -11 4 -6 -3 9 -14 -28 -25
-56 -16 -20 6 -21 5 -9 -10 11 -14 11 -16 -2 -16 -10 0 -14 -6 -11 -15 4 -8
11 -12 17 -8 6 3 7 1 3 -5 -11 -18 -22 -15 -53 14 -24 23 -29 24 -39 9 -10
-14 -12 -14 -18 0 -9 24 4 43 44 66 21 12 43 33 49 46 8 16 17 23 27 19 8 -3
12 -2 9 4 -10 17 -23 11 -45 -20z m-48 -128 c4 -15 -1 -18 -31 -19 -21 0 -26
1 -13 4 13 2 26 11 29 19 7 18 10 18 15 -4z"/>
<path d="M1105 491 c-3 -2 -5 -12 -5 -21 0 -9 -11 -22 -25 -28 -26 -12 -70
-91 -58 -103 10 -8 123 -18 141 -12 6 3 12 14 12 26 0 13 12 30 29 41 16 11
27 27 26 35 -2 9 -4 27 -4 41 -1 24 -4 26 -56 26 -31 0 -58 -2 -60 -5z m82
-16 c6 -2 14 1 16 8 2 7 4 0 3 -15 0 -16 -4 -28 -8 -28 -5 0 -8 -5 -8 -11 0
-5 5 -7 10 -4 6 3 10 2 10 -2 0 -17 -24 -33 -49 -33 -21 0 -23 -2 -11 -10 13
-8 13 -10 -2 -10 -11 0 -15 -5 -12 -15 4 -8 11 -12 17 -8 6 3 7 1 3 -5 -12
-19 -32 -14 -46 12 -16 31 -47 40 -60 18 -8 -15 -9 -14 -10 5 0 20 34 63 51
63 4 0 10 -11 13 -25 7 -27 23 -34 23 -10 0 8 -4 15 -9 15 -9 0 -11 54 -2 63
6 6 36 2 71 -8z m-105 -126 c5 -3 -8 -6 -29 -7 -32 0 -34 1 -15 8 12 5 22 15
23 22 0 9 3 8 6 -2 3 -8 10 -18 15 -21z"/>
<path d="M1125 469 c-9 -14 -2 -20 14 -10 8 6 9 11 3 15 -6 3 -14 1 -17 -5z"/>
<path d="M1145 420 c3 -5 8 -10 11 -10 2 0 4 5 4 10 0 6 -5 10 -11 10 -5 0 -7
-4 -4 -10z"/>
<path d="M767 459 c-10 -6 -31 -7 -47 -4 -28 6 -30 5 -31 -24 -1 -17 -2 -37
-3 -43 -1 -7 1 -15 4 -18 3 -3 10 -14 16 -25 13 -23 59 -32 79 -15 8 7 28 9
49 4 23 -4 42 -2 51 6 19 16 19 80 0 106 -13 17 -13 16 -3 -12 6 -17 8 -39 5
-48 -10 -25 -38 -32 -49 -12 -5 9 -13 14 -19 11 -5 -4 -9 11 -9 34 0 36 3 40
28 44 20 3 16 4 -13 5 -22 1 -48 -3 -58 -9z m-19 -18 c20 4 40 5 43 1 4 -4 9
-27 12 -52 3 -25 3 -37 0 -27 -4 16 -24 25 -22 10 4 -26 -3 -43 -18 -43 -15 0
-16 2 -3 10 12 8 10 10 -11 10 -25 0 -49 16 -49 33 0 4 5 5 10 2 6 -3 10 -1
10 4 0 6 -3 11 -7 11 -5 0 -9 12 -9 28 -1 15 0 22 3 16 3 -8 16 -9 41 -3z
m122 -83 c19 11 21 11 18 0 -3 -7 -18 -13 -34 -13 -21 0 -30 5 -32 20 l-4 20
15 -20 c14 -18 18 -18 37 -7z"/>
<path d="M766 431 c-3 -5 1 -11 9 -15 8 -3 15 -1 15 4 0 13 -18 22 -24 11z"/>
<path d="M750 379 c0 -5 5 -7 10 -4 6 3 10 8 10 11 0 2 -4 4 -10 4 -5 0 -10
-5 -10 -11z"/>
<path d="M49 429 c-1 -16 -2 -35 -3 -41 -1 -7 1 -15 4 -18 3 -3 10 -14 16 -25
13 -23 59 -32 79 -15 8 7 28 9 49 4 23 -4 42 -2 51 6 19 16 19 61 0 86 -14 18
-14 17 -4 -8 9 -21 9 -31 -1 -43 -16 -19 -36 -19 -44 1 -3 8 -10 12 -16 9 -6
-4 -10 6 -10 24 0 27 4 31 27 31 58 0 12 9 -65 13 l-82 4 -1 -28z m59 12 c20
4 40 5 43 1 4 -4 9 -27 12 -52 3 -25 3 -37 0 -27 -4 16 -24 25 -22 10 4 -26
-3 -43 -18 -43 -15 0 -16 2 -3 10 12 8 10 10 -11 10 -25 0 -49 16 -49 33 0 4
5 5 10 2 6 -3 10 -1 10 4 0 6 -3 11 -7 11 -5 0 -9 12 -9 28 -1 15 0 22 3 16 3
-8 16 -9 41 -3z m122 -83 c19 11 21 11 18 0 -3 -7 -18 -13 -34 -13 -21 0 -30
5 -32 20 l-4 20 15 -20 c14 -18 18 -18 37 -7z"/>
<path d="M126 431 c-3 -5 1 -11 9 -15 8 -3 15 -1 15 4 0 13 -18 22 -24 11z"/>
<path d="M110 379 c0 -5 5 -7 10 -4 6 3 10 8 10 11 0 2 -4 4 -10 4 -5 0 -10
-5 -10 -11z"/>
<path d="M369 428 c-1 -16 -2 -34 -3 -40 -1 -7 1 -15 4 -18 3 -3 10 -14 16
-25 13 -23 59 -32 79 -15 8 7 28 9 49 4 23 -4 42 -2 51 6 19 16 19 70 0 96
-13 17 -13 16 -3 -13 9 -25 9 -35 -1 -47 -17 -20 -37 -20 -45 0 -3 8 -10 12
-16 9 -6 -4 -10 8 -10 29 0 30 4 35 28 39 15 2 -12 4 -60 3 l-88 -1 -1 -27z
m59 13 c20 4 40 5 43 1 4 -4 9 -27 12 -52 3 -25 3 -37 0 -27 -4 16 -24 25 -22
10 4 -26 -3 -43 -18 -43 -15 0 -16 2 -3 10 12 8 10 10 -10 10 -26 0 -50 16
-50 33 0 4 5 5 10 2 6 -3 10 -1 10 4 0 6 -3 11 -7 11 -5 0 -9 12 -9 28 -1 15
0 22 3 16 3 -8 16 -9 41 -3z m122 -83 c19 11 21 11 18 0 -3 -7 -18 -13 -34
-13 -21 0 -30 5 -32 20 l-4 20 15 -20 c14 -18 18 -18 37 -7z"/>
<path d="M446 431 c-3 -5 1 -11 9 -15 8 -3 15 -1 15 4 0 13 -18 22 -24 11z"/>
<path d="M430 379 c0 -5 5 -7 10 -4 6 3 10 8 10 11 0 2 -4 4 -10 4 -5 0 -10
-5 -10 -11z"/>
<path d="M1515 430 c3 -5 8 -10 11 -10 2 0 4 5 4 10 0 6 -5 10 -11 10 -5 0 -7
-4 -4 -10z"/>
<path d="M1745 281 c-3 -2 -5 -12 -5 -22 0 -10 -13 -25 -30 -34 -34 -18 -50
-43 -50 -79 0 -34 29 -48 92 -44 48 3 52 5 63 37 6 18 20 41 31 50 10 9 19 22
18 29 -1 6 -2 25 -3 40 -1 27 -3 28 -56 28 -31 0 -58 -2 -60 -5z m103 -40 c1
-45 -23 -75 -39 -50 -8 10 -9 8 -4 -8 3 -13 3 -33 -1 -45 -6 -21 -7 -20 -19 8
-11 28 -12 28 -19 7 -4 -13 -15 -23 -24 -24 -11 0 -13 -2 -4 -6 7 -3 20 1 29
9 14 11 16 11 11 -2 -2 -8 -17 -16 -33 -18 -40 -5 -75 16 -75 45 0 23 31 63
50 63 5 0 19 11 32 24 13 14 37 26 53 29 17 2 33 5 36 6 4 0 7 -17 7 -38z"/>
<path d="M1386 232 c-3 -6 -9 -48 -12 -95 -7 -106 1 -117 87 -117 65 0 83 15
61 51 -7 10 -14 49 -17 86 -6 67 -17 95 -29 74 -9 -14 -59 -14 -73 0 -7 7 -13
7 -17 1z m54 -22 c14 0 31 5 37 11 8 8 11 0 11 -28 0 -21 4 -62 7 -90 7 -51 6
-53 -16 -54 -18 -1 -14 -4 11 -9 30 -6 27 -8 -26 -9 -77 -1 -89 10 -79 76 4
27 7 65 7 86 0 28 3 36 11 28 6 -6 23 -11 37 -11z"/>
<path d="M1105 181 c-3 -2 -5 -12 -5 -22 0 -10 -13 -25 -30 -34 -34 -18 -50
-43 -50 -79 0 -34 29 -48 92 -44 48 3 52 5 63 37 6 18 20 41 31 50 10 9 19 22
18 29 -1 6 -2 25 -3 40 -1 27 -3 28 -56 28 -31 0 -58 -2 -60 -5z m103 -40 c1
-45 -23 -75 -39 -50 -8 10 -9 8 -4 -8 3 -13 3 -33 -1 -45 -6 -21 -7 -20 -19 8
-11 28 -12 28 -19 7 -4 -13 -15 -23 -24 -24 -11 0 -13 -2 -4 -6 7 -3 20 1 29
9 14 11 16 11 11 -2 -2 -8 -17 -16 -33 -18 -40 -5 -75 16 -75 45 0 23 31 63
50 63 5 0 19 11 32 24 13 14 37 26 53 29 17 2 33 5 36 6 4 0 7 -17 7 -38z"/>
<path d="M55 138 c-14 -41 -10 -94 9 -115 21 -24 70 -31 81 -12 5 6 22 8 46 4
26 -5 45 -3 54 5 19 16 19 61 0 86 -14 18 -14 17 -4 -8 9 -21 9 -31 -1 -43
-17 -20 -26 -19 -50 5 -30 30 -26 60 8 61 27 2 27 2 2 6 -14 3 -32 10 -40 16
-8 6 -12 7 -8 3 4 -5 3 -15 -3 -22 -7 -8 -7 -14 1 -19 20 -12 11 -55 -15 -67
-35 -16 -75 3 -75 36 0 14 5 28 10 31 8 5 8 11 1 19 -6 7 -8 16 -4 19 3 4 3 7
-1 7 -3 0 -9 -6 -11 -12z m175 -100 c19 11 21 11 18 0 -3 -7 -18 -13 -34 -13
-21 0 -30 5 -32 20 l-4 20 15 -20 c14 -18 18 -18 37 -7z m-90 -18 c0 -5 -8
-10 -17 -10 -15 0 -16 2 -3 10 19 12 20 12 20 0z"/>
<path d="M375 138 c-14 -41 -10 -94 9 -115 21 -24 70 -31 81 -12 5 6 22 8 46
4 26 -5 45 -3 54 5 19 16 19 71 0 96 -13 17 -13 16 -3 -13 9 -25 9 -35 -1 -47
-8 -9 -17 -16 -22 -16 -18 0 -49 41 -49 64 0 19 6 25 28 28 24 3 23 4 -10 9
-21 3 -35 3 -33 0 3 -2 0 -10 -6 -17 -7 -8 -7 -14 1 -19 5 -3 10 -17 10 -31 0
-33 -40 -52 -75 -36 -26 12 -35 55 -15 67 8 5 8 11 1 19 -6 7 -8 16 -4 19 3 4
3 7 -1 7 -3 0 -9 -6 -11 -12z m175 -100 c19 11 21 11 18 0 -3 -7 -18 -13 -34
-13 -21 0 -30 5 -32 20 l-4 20 15 -20 c14 -18 18 -18 37 -7z m-90 -18 c0 -5
-8 -10 -17 -10 -15 0 -16 2 -3 10 19 12 20 12 20 0z"/>
<path d="M695 138 c-14 -41 -10 -94 9 -115 21 -24 70 -31 81 -12 5 6 22 8 46
4 26 -5 45 -3 54 5 19 16 19 81 0 106 -13 17 -13 16 -3 -12 20 -56 -14 -92
-51 -55 -12 12 -21 34 -21 50 0 25 5 30 28 34 21 3 18 4 -12 6 -22 0 -36 -2
-33 -6 4 -3 2 -12 -4 -19 -7 -8 -7 -14 1 -19 5 -3 10 -17 10 -31 0 -33 -40
-52 -75 -36 -26 12 -35 55 -15 67 8 5 8 11 1 19 -6 7 -8 16 -4 19 3 4 3 7 -1
7 -3 0 -9 -6 -11 -12z m175 -100 c19 11 21 11 18 0 -3 -7 -18 -13 -34 -13 -21
0 -30 5 -32 20 l-4 20 15 -20 c14 -18 18 -18 37 -7z m-90 -18 c0 -5 -8 -10
-17 -10 -15 0 -16 2 -3 10 19 12 20 12 20 0z"/>
<path d="M75 70 c3 -5 8 -10 11 -10 2 0 4 5 4 10 0 6 -5 10 -11 10 -5 0 -7 -4
-4 -10z"/>
<path d="M130 69 c0 -5 5 -7 10 -4 6 3 10 8 10 11 0 2 -4 4 -10 4 -5 0 -10 -5
-10 -11z"/>
<path d="M395 70 c3 -5 8 -10 11 -10 2 0 4 5 4 10 0 6 -5 10 -11 10 -5 0 -7
-4 -4 -10z"/>
<path d="M450 69 c0 -5 5 -7 10 -4 6 3 10 8 10 11 0 2 -4 4 -10 4 -5 0 -10 -5
-10 -11z"/>
<path d="M715 70 c3 -5 8 -10 11 -10 2 0 4 5 4 10 0 6 -5 10 -11 10 -5 0 -7
-4 -4 -10z"/>
<path d="M770 69 c0 -5 5 -7 10 -4 6 3 10 8 10 11 0 2 -4 4 -10 4 -5 0 -10 -5
-10 -11z"/>
</g>
</svg>
